<?xml version="1.0" encoding="utf-8"?>
<!-- Generator: Adobe Illustrator 18.1.1, SVG Export Plug-In . SVG Version: 6.00 Build 0)  -->
<svg version="1.1" id="Layer_1" xmlns="http://www.w3.org/2000/svg" xmlns:xlink="http://www.w3.org/1999/xlink" x="0px" y="0px"
	 viewBox="0 0 193 313.1" enable-background="new 0 0 193 313.1" xml:space="preserve">
<path fill="#08456B" d="M191.2,312.4c0.5,0,1-0.2,1.3-0.5c0.3-0.3,0.5-0.7,0.5-1.3v-3.5c0-0.5-0.2-1-0.5-1.3
	c-0.3-0.3-0.7-0.5-1.3-0.5h-2c-0.5,0-1,0.2-1.3,0.5c-0.3,0.3-0.5,0.7-0.5,1.3v3.5c0,0.5,0.2,1,0.5,1.3c0.3,0.3,0.7,0.5,1.3,0.5
	H191.2z M180.5,312.4c0.7,0,1.3-0.2,1.7-0.6c0.4-0.4,0.6-1,0.6-1.7v-2.3c0-0.7-0.2-1.3-0.6-1.7c-0.4-0.4-1-0.6-1.7-0.6h-21.2
	c-0.5,0-0.8-0.3-0.8-0.8V290c0-0.5,0.3-0.8,0.8-0.8h18.1c0.7,0,1.3-0.2,1.7-0.6c0.4-0.4,0.6-1,0.6-1.7v-2.3c0-0.7-0.2-1.3-0.6-1.7
	c-0.4-0.4-1-0.6-1.7-0.6h-18.1c-0.5,0-0.8-0.3-0.8-0.8v-13.9c0-0.5,0.3-0.8,0.8-0.8H179c0.7,0,1.3-0.2,1.7-0.6
	c0.4-0.4,0.6-1,0.6-1.7v-2.3c0-0.7-0.2-1.3-0.6-1.7c-0.4-0.4-1-0.6-1.7-0.6h-25.4c-0.7,0-1.3,0.2-1.7,0.6c-0.4,0.4-0.6,1-0.6,1.7
	v47.7c0,0.7,0.2,1.3,0.6,1.7c0.4,0.4,1,0.6,1.7,0.6H180.5z M125.2,312.4c0.7,0,1.3-0.1,1.7-0.4c0.4-0.3,0.8-0.8,1-1.7l15.4-48.1
	c0.4-1.4-0.1-2.2-1.6-2.2H138c-1.4,0-2.3,0.6-2.6,1.8l-12.1,40.7c-0.2,0.6-0.4,0.8-0.8,0.8c-0.4,0-0.6-0.3-0.8-0.8l-12.1-40.7
	c-0.4-1.2-1.2-1.8-2.6-1.8h-3.8c-1.5,0-2,0.7-1.6,2.2l15.4,48.1c0.3,0.8,0.6,1.4,1,1.7c0.4,0.3,1,0.4,1.7,0.4H125.2z M87.1,295.4
	c0,3.1-0.9,5.6-2.8,7.7c-1.8,2.1-4.5,3.1-8,3.1c-3.5,0-6.2-1-8-3.1c-1.8-2.1-2.8-4.6-2.8-7.7v-18.5c0-3.1,0.9-5.6,2.8-7.7
	c1.8-2.1,4.5-3.1,8-3.1c3.5,0,6.2,1,8,3.1c1.8,2.1,2.8,4.6,2.8,7.7V295.4z M94.5,276.9c0-2.6-0.5-5-1.3-7.2c-0.9-2.2-2.2-4-3.8-5.6
	c-1.6-1.5-3.5-2.7-5.7-3.6c-2.2-0.9-4.6-1.3-7.2-1.3c-2.6,0-5,0.4-7.2,1.3c-2.2,0.9-4.1,2.1-5.7,3.6c-1.6,1.5-2.9,3.4-3.8,5.6
	c-0.9,2.2-1.3,4.6-1.3,7.2v18.5c0,2.6,0.4,5,1.3,7.2c0.9,2.2,2.2,4,3.8,5.6c1.6,1.5,3.5,2.7,5.7,3.6c2.2,0.9,4.6,1.3,7.2,1.3
	c2.6,0,5-0.4,7.2-1.3c2.2-0.9,4.1-2.1,5.7-3.6c1.6-1.5,2.9-3.4,3.8-5.6c0.9-2.2,1.3-4.6,1.3-7.2V276.9z M44.9,312.4
	c0.7,0,1.3-0.2,1.7-0.6c0.4-0.4,0.6-1,0.6-1.7v-47.7c0-0.7-0.2-1.3-0.6-1.7c-0.4-0.4-1-0.6-1.7-0.6h-6.8c-0.7,0-1.3,0.2-1.7,0.5
	c-0.4,0.3-0.7,0.8-0.9,1.3l-9.1,26.9c-0.2,0.5-0.5,0.7-0.8,0.7c-0.3,0-0.6-0.2-0.7-0.7l-9.1-26.9c-0.2-0.6-0.5-1-0.9-1.3
	c-0.4-0.3-1-0.5-1.7-0.5H6.4c-0.7,0-1.3,0.2-1.7,0.6c-0.4,0.4-0.6,1-0.6,1.7v47.7c0,0.7,0.2,1.3,0.6,1.7c0.4,0.4,1,0.6,1.7,0.6h2.7
	c0.7,0,1.3-0.2,1.7-0.6c0.4-0.4,0.6-1,0.6-1.7v-35.7c0-0.7,0.2-1,0.5-1c0.3,0,0.6,0.2,0.8,0.7l7.8,21.9c0.5,1.4,1.4,2.1,2.8,2.1h4.9
	c1.3,0,2.3-0.7,2.8-2.1l7.8-21.9c0.2-0.6,0.5-0.8,0.8-0.6c0.3,0.2,0.5,0.5,0.5,0.9v35.7c0,0.7,0.2,1.3,0.6,1.7
	c0.4,0.4,1,0.6,1.7,0.6H44.9z"/>
<path fill="#0A9AD7" d="M70.6,230.4c0,3.1-0.9,5.6-2.8,7.7c-1.8,2.1-4.5,3.1-8,3.1c-3.5,0-6.2-1-8-3.1c-1.8-2.1-2.8-4.6-2.8-7.7
	v-18.5c0-3.1,0.9-5.6,2.8-7.7c1.8-2.1,4.5-3.1,8-3.1c3.5,0,6.2,1,8,3.1c1.8,2.1,2.8,4.6,2.8,7.7V230.4z M77.9,211.9
	c0-2.6-0.4-5-1.3-7.2c-0.9-2.2-2.2-4-3.8-5.6c-1.6-1.5-3.5-2.7-5.7-3.6c-2.2-0.9-4.6-1.3-7.2-1.3c-2.6,0-5,0.4-7.2,1.3
	c-2.2,0.9-4.1,2.1-5.7,3.6c-1.6,1.5-2.9,3.4-3.8,5.6c-0.9,2.2-1.3,4.6-1.3,7.2v18.5c0,2.6,0.4,5,1.3,7.2c0.9,2.2,2.2,4,3.8,5.6
	s3.5,2.7,5.7,3.6c2.2,0.9,4.6,1.3,7.2,1.3c2.6,0,5-0.4,7.2-1.3c2.2-0.9,4.1-2.1,5.7-3.6s2.9-3.4,3.8-5.6c0.9-2.2,1.3-4.6,1.3-7.2
	V211.9z M19.8,247.4c0.7,0,1.3-0.2,1.7-0.6c0.4-0.4,0.6-1,0.6-1.7v-42.4c0-0.5,0.3-0.8,0.8-0.8h11.6c0.7,0,1.3-0.2,1.7-0.6
	c0.4-0.4,0.6-1,0.6-1.7v-2.3c0-0.7-0.2-1.3-0.6-1.7c-0.4-0.4-1-0.6-1.7-0.6h-32c-0.7,0-1.3,0.2-1.7,0.6c-0.4,0.4-0.6,1-0.6,1.7v2.3
	c0,0.7,0.2,1.3,0.6,1.7c0.4,0.4,1,0.6,1.7,0.6h11.5c0.5,0,0.8,0.3,0.8,0.8v42.4c0,0.7,0.2,1.3,0.6,1.7c0.4,0.4,1,0.6,1.7,0.6H19.8z"
	/>
<path fill="#0A9AD7" d="M131.7,182.4c0.7,0,1.3-0.2,1.7-0.6c0.4-0.4,0.6-1,0.6-1.7v-18.5c0-0.4,0.1-0.8,0.2-1.1
	c0.2-0.3,0.4-0.6,0.8-0.7c3.8-1,6.9-3.1,9.1-6.2c2.2-3.1,3.3-6.9,3.3-11.2v-10c0-0.7-0.2-1.3-0.6-1.7c-0.4-0.4-1-0.6-1.7-0.6h-2.7
	c-0.7,0-1.3,0.2-1.7,0.6c-0.4,0.4-0.6,1-0.6,1.7v10c0,1.5-0.2,3-0.6,4.4c-0.4,1.4-1,2.5-1.8,3.5c-0.8,1-1.9,1.8-3.1,2.4
	c-1.3,0.6-2.8,0.9-4.5,0.9c-1.7,0-3.2-0.3-4.5-0.9c-1.3-0.6-2.3-1.4-3.1-2.4c-0.8-1-1.4-2.2-1.8-3.5c-0.4-1.4-0.6-2.8-0.6-4.4v-10
	c0-0.7-0.2-1.3-0.6-1.7c-0.4-0.4-1-0.6-1.7-0.6h-2.7c-0.7,0-1.3,0.2-1.7,0.6c-0.4,0.4-0.6,1-0.6,1.7v10c0,4.5,1.1,8.2,3.4,11.3
	c2.3,3.1,5.4,5.1,9.4,6.3c0.7,0.3,1.1,0.8,1.1,1.7v18.5c0,0.7,0.2,1.3,0.6,1.7c0.4,0.4,1,0.6,1.7,0.6H131.7z M100.8,170
	c0.1,0.4,0,0.7-0.2,1c-0.3,0.3-0.7,0.2-1.2-0.1l-14.5-8.5c-0.4-0.2-0.6-0.5-0.8-0.8c-0.2-0.3-0.1-0.8,0.1-1.5l6.1-20.3
	c0.2-0.6,0.4-0.8,0.8-0.8c0.4,0,0.6,0.3,0.8,0.8L100.8,170z M110.6,180.9c0.8-0.7,1-1.6,0.6-2.8l-14.7-46c-0.3-0.8-0.6-1.4-1-1.7
	c-0.4-0.3-1-0.4-1.7-0.4h-5.4c-0.7,0-1.3,0.1-1.7,0.4c-0.4,0.3-0.8,0.8-1,1.7l-15.4,48.1c-0.4,1.4,0.1,2.2,1.6,2.2h3.8
	c1.4,0,2.3-0.6,2.6-1.8l3.2-10.5c0.1-0.3,0.3-0.6,0.6-0.8c0.3-0.2,0.6-0.2,1,0l22.4,13.1c0.6,0.3,1.2,0.5,1.8,0.5
	c0.6,0.1,1.2-0.1,1.7-0.5L110.6,180.9z M58.3,165.4c0,3.1-0.8,5.6-2.4,7.7c-1.6,2.1-4.1,3.1-7.6,3.1c-1.7,0-3.2-0.3-4.5-0.8
	c-1.3-0.5-2.3-1.3-3.1-2.3c-0.8-1-1.4-2.1-1.8-3.4c-0.4-1.3-0.6-2.7-0.6-4.3v-33.1c0-0.7-0.2-1.3-0.6-1.7c-0.4-0.4-1-0.6-1.7-0.6
	h-2.7c-0.7,0-1.3,0.2-1.7,0.6c-0.4,0.4-0.6,1-0.6,1.7v33.1c0,3.1-0.8,5.6-2.4,7.7c-1.6,2.1-4.1,3.1-7.6,3.1c-1.7,0-3.2-0.3-4.5-0.8
	c-1.3-0.5-2.3-1.3-3.1-2.3c-0.8-1-1.4-2.1-1.8-3.4c-0.4-1.3-0.6-2.7-0.6-4.3v-33.1c0-0.7-0.2-1.3-0.6-1.7c-0.4-0.4-1-0.6-1.7-0.6H6
	c-0.7,0-1.3,0.2-1.7,0.6c-0.4,0.4-0.6,1-0.6,1.7v33.1c0,2.6,0.4,5,1.2,7.2c0.8,2.2,2,4,3.5,5.6c1.5,1.5,3.3,2.7,5.5,3.6
	c2.1,0.9,4.5,1.3,7.1,1.3c2.9,0,5.3-0.5,7.3-1.5s3.7-2.4,5.2-4.2c0.7-0.8,1.4-0.8,2.2,0c0.7,0.8,1.5,1.5,2.3,2.2
	c0.8,0.7,1.7,1.3,2.7,1.8c1,0.5,2.1,0.9,3.3,1.2c1.2,0.3,2.6,0.4,4.2,0.4c2.6,0,5-0.4,7.1-1.3c2.1-0.9,4-2.1,5.5-3.6
	c1.5-1.5,2.7-3.4,3.5-5.6c0.8-2.2,1.2-4.6,1.2-7.2v-33.1c0-0.7-0.2-1.3-0.6-1.7c-0.4-0.4-1-0.6-1.7-0.6h-2.7c-0.7,0-1.3,0.2-1.7,0.6
	c-0.4,0.4-0.6,1-0.6,1.7V165.4z"/>
<path fill="#0A9AD7" d="M147.9,100.4c0,3.1-0.8,5.6-2.4,7.7c-1.6,2.1-4.1,3.1-7.6,3.1c-1.7,0-3.2-0.3-4.5-0.8
	c-1.3-0.5-2.3-1.3-3.1-2.3c-0.8-1-1.4-2.1-1.8-3.4c-0.4-1.3-0.6-2.7-0.6-4.3V67.3c0-0.7-0.2-1.3-0.6-1.7c-0.4-0.4-1-0.6-1.7-0.6
	h-2.7c-0.7,0-1.3,0.2-1.7,0.6c-0.4,0.4-0.6,1-0.6,1.7v33.1c0,3.1-0.8,5.6-2.4,7.7c-1.6,2.1-4.1,3.1-7.6,3.1c-1.7,0-3.2-0.3-4.5-0.8
	c-1.3-0.5-2.3-1.3-3.1-2.3c-0.8-1-1.4-2.1-1.8-3.4c-0.4-1.3-0.6-2.7-0.6-4.3V67.3c0-0.7-0.2-1.3-0.6-1.7c-0.4-0.4-1-0.6-1.7-0.6
	h-2.7c-0.7,0-1.3,0.2-1.7,0.6c-0.4,0.4-0.6,1-0.6,1.7v33.1c0,2.6,0.4,5,1.2,7.2c0.8,2.2,2,4,3.5,5.6c1.5,1.5,3.3,2.7,5.5,3.6
	c2.1,0.9,4.5,1.3,7.1,1.3c2.9,0,5.3-0.5,7.3-1.5c2-1,3.7-2.4,5.2-4.2c0.7-0.8,1.4-0.8,2.2,0c0.7,0.8,1.5,1.5,2.3,2.2
	c0.8,0.7,1.7,1.3,2.7,1.8c1,0.5,2.1,0.9,3.3,1.2c1.2,0.3,2.6,0.4,4.2,0.4c2.6,0,5-0.4,7.1-1.3c2.1-0.9,4-2.1,5.5-3.6
	c1.5-1.5,2.7-3.4,3.5-5.6c0.8-2.2,1.2-4.6,1.2-7.2V67.3c0-0.7-0.2-1.3-0.6-1.7c-0.4-0.4-1-0.6-1.7-0.6h-2.7c-0.7,0-1.3,0.2-1.7,0.6
	c-0.4,0.4-0.6,1-0.6,1.7V100.4z M81,117.4c0.7,0,1.3-0.2,1.7-0.6c0.4-0.4,0.6-1,0.6-1.7v-2.3c0-0.7-0.2-1.3-0.6-1.7
	c-0.4-0.4-1-0.6-1.7-0.6H59.8c-0.5,0-0.8-0.3-0.8-0.8V95c0-0.5,0.3-0.8,0.8-0.8h18.1c0.7,0,1.3-0.2,1.7-0.6c0.4-0.4,0.6-1,0.6-1.7
	v-2.3c0-0.7-0.2-1.3-0.6-1.7c-0.4-0.4-1-0.6-1.7-0.6H59.8c-0.5,0-0.8-0.3-0.8-0.8V72.7c0-0.5,0.3-0.8,0.8-0.8h19.6
	c0.7,0,1.3-0.2,1.7-0.6c0.4-0.4,0.6-1,0.6-1.7v-2.3c0-0.7-0.2-1.3-0.6-1.7c-0.4-0.4-1-0.6-1.7-0.6H54c-0.7,0-1.3,0.2-1.7,0.6
	c-0.4,0.4-0.6,1-0.6,1.7v47.7c0,0.7,0.2,1.3,0.6,1.7c0.4,0.4,1,0.6,1.7,0.6H81z M37.6,117.4c0.7,0,1.3-0.2,1.7-0.6
	c0.4-0.4,0.6-1,0.6-1.7V67.3c0-0.7-0.2-1.3-0.6-1.7c-0.4-0.4-1-0.6-1.7-0.6h-2.7c-0.7,0-1.3,0.2-1.7,0.6c-0.4,0.4-0.6,1-0.6,1.7
	v31.9c0,0.4-0.1,0.6-0.4,0.7c-0.3,0.1-0.5-0.1-0.7-0.4L12.7,66.9c-0.4-0.7-0.9-1.2-1.4-1.5c-0.5-0.3-1.2-0.4-1.9-0.4h-3
	c-0.7,0-1.3,0.2-1.7,0.6c-0.4,0.4-0.6,1-0.6,1.7v47.7c0,0.7,0.2,1.3,0.6,1.7c0.4,0.4,1,0.6,1.7,0.6h2.7c0.7,0,1.3-0.2,1.7-0.6
	c0.4-0.4,0.6-1,0.6-1.7v-34c0-0.4,0.1-0.7,0.4-0.8c0.3-0.1,0.6,0.1,0.8,0.5l19.6,34.3c0.5,0.8,0.9,1.3,1.3,1.7
	c0.4,0.4,1,0.6,1.7,0.6H37.6z"/>
<path fill="#0A9AD7" d="M30.8,40c0.1,0.4,0,0.7-0.2,1c-0.3,0.3-0.7,0.2-1.2-0.1l-14.5-8.5c-0.4-0.2-0.6-0.5-0.8-0.8
	c-0.2-0.3-0.1-0.8,0.1-1.5l6.1-20.3c0.2-0.6,0.4-0.8,0.8-0.8c0.4,0,0.6,0.3,0.8,0.8L30.8,40z M40.6,50.9c0.8-0.7,1-1.6,0.6-2.8
	l-14.7-46c-0.3-0.8-0.6-1.4-1-1.7C25,0.1,24.4,0,23.7,0h-5.4c-0.7,0-1.3,0.1-1.7,0.4c-0.4,0.3-0.8,0.8-1,1.7L0.1,50.2
	c-0.4,1.4,0.1,2.2,1.6,2.2h3.8c1.4,0,2.3-0.6,2.6-1.8L11.3,40c0.1-0.3,0.3-0.6,0.6-0.8c0.3-0.2,0.6-0.2,1,0l22.4,13.1
	c0.6,0.3,1.2,0.5,1.8,0.5c0.6,0.1,1.2-0.1,1.7-0.5L40.6,50.9z"/>
</svg>
