<?xml version="1.0" encoding="utf-8"?>
<!-- Generator: Adobe Illustrator 18.1.1, SVG Export Plug-In . SVG Version: 6.00 Build 0)  -->
<svg version="1.1" id="Layer_1" xmlns="http://www.w3.org/2000/svg" xmlns:xlink="http://www.w3.org/1999/xlink" x="0px" y="0px"
	 viewBox="0 0 36.8 59.6" enable-background="new 0 0 36.8 59.6" xml:space="preserve">
<path fill="#08456B" d="M36.5,59.5c0.1,0,0.2,0,0.2-0.1c0.1-0.1,0.1-0.1,0.1-0.2v-0.7c0-0.1,0-0.2-0.1-0.2c-0.1-0.1-0.1-0.1-0.2-0.1
	h-0.4c-0.1,0-0.2,0-0.2,0.1c-0.1,0.1-0.1,0.1-0.1,0.2v0.7c0,0.1,0,0.2,0.1,0.2c0.1,0.1,0.1,0.1,0.2,0.1H36.5z M34.2,59.5
	c0.1,0,0.2,0,0.3-0.1c0.1-0.1,0.1-0.2,0.1-0.3v-0.4c0-0.1,0-0.2-0.1-0.3c-0.1-0.1-0.2-0.1-0.3-0.1h-4c-0.1,0-0.1,0-0.1-0.1v-2.8
	c0-0.1,0-0.1,0.1-0.1h3.4c0.1,0,0.2,0,0.3-0.1c0.1-0.1,0.1-0.2,0.1-0.3v-0.4c0-0.1,0-0.2-0.1-0.3c-0.1-0.1-0.2-0.1-0.3-0.1h-3.4
	c-0.1,0-0.1,0-0.1-0.1V51c0-0.1,0-0.1,0.1-0.1h3.7c0.1,0,0.2,0,0.3-0.1c0.1-0.1,0.1-0.2,0.1-0.3V50c0-0.1,0-0.2-0.1-0.3
	c-0.1-0.1-0.2-0.1-0.3-0.1h-4.8c-0.1,0-0.2,0-0.3,0.1c-0.1,0.1-0.1,0.2-0.1,0.3v9c0,0.1,0,0.2,0.1,0.3c0.1,0.1,0.2,0.1,0.3,0.1H34.2
	z M23.7,59.5c0.1,0,0.2,0,0.3-0.1c0.1-0.1,0.1-0.2,0.2-0.3l2.9-9.1c0.1-0.3,0-0.4-0.3-0.4h-0.7c-0.3,0-0.4,0.1-0.5,0.4l-2.3,7.7
	c0,0.1-0.1,0.2-0.1,0.2c-0.1,0-0.1-0.1-0.1-0.2l-2.3-7.7c-0.1-0.2-0.2-0.4-0.5-0.4h-0.7c-0.3,0-0.4,0.1-0.3,0.4l2.9,9.1
	c0,0.2,0.1,0.3,0.2,0.3c0.1,0.1,0.2,0.1,0.3,0.1H23.7z M16.5,56.3c0,0.6-0.2,1.1-0.5,1.5s-0.9,0.6-1.5,0.6c-0.7,0-1.2-0.2-1.5-0.6
	c-0.4-0.4-0.5-0.9-0.5-1.5v-3.5c0-0.6,0.2-1.1,0.5-1.5c0.3-0.4,0.9-0.6,1.5-0.6c0.7,0,1.2,0.2,1.5,0.6c0.4,0.4,0.5,0.9,0.5,1.5V56.3
	z M17.9,52.8c0-0.5-0.1-1-0.3-1.4c-0.2-0.4-0.4-0.8-0.7-1.1c-0.3-0.3-0.7-0.5-1.1-0.7c-0.4-0.2-0.9-0.2-1.4-0.2
	c-0.5,0-1,0.1-1.4,0.2c-0.4,0.2-0.8,0.4-1.1,0.7c-0.3,0.3-0.5,0.6-0.7,1.1c-0.2,0.4-0.3,0.9-0.3,1.4v3.5c0,0.5,0.1,1,0.3,1.4
	c0.2,0.4,0.4,0.8,0.7,1.1c0.3,0.3,0.7,0.5,1.1,0.7c0.4,0.2,0.9,0.2,1.4,0.2c0.5,0,1-0.1,1.4-0.2c0.4-0.2,0.8-0.4,1.1-0.7
	c0.3-0.3,0.5-0.6,0.7-1.1c0.2-0.4,0.3-0.9,0.3-1.4V52.8z M8.5,59.5c0.1,0,0.2,0,0.3-0.1c0.1-0.1,0.1-0.2,0.1-0.3v-9
	c0-0.1,0-0.2-0.1-0.3c-0.1-0.1-0.2-0.1-0.3-0.1H7.2c-0.1,0-0.2,0-0.3,0.1c-0.1,0.1-0.1,0.1-0.2,0.3L5,55c0,0.1-0.1,0.1-0.2,0.1
	c-0.1,0-0.1,0-0.1-0.1L3,49.9c0-0.1-0.1-0.2-0.2-0.3c-0.1-0.1-0.2-0.1-0.3-0.1H1.2c-0.1,0-0.2,0-0.3,0.1c-0.1,0.1-0.1,0.2-0.1,0.3v9
	c0,0.1,0,0.2,0.1,0.3c0.1,0.1,0.2,0.1,0.3,0.1h0.5c0.1,0,0.2,0,0.3-0.1c0.1-0.1,0.1-0.2,0.1-0.3v-6.8c0-0.1,0-0.2,0.1-0.2
	c0.1,0,0.1,0,0.1,0.1l1.5,4.2c0.1,0.3,0.3,0.4,0.5,0.4h0.9c0.3,0,0.4-0.1,0.5-0.4l1.5-4.2c0-0.1,0.1-0.1,0.1-0.1
	c0.1,0,0.1,0.1,0.1,0.2V59c0,0.1,0,0.2,0.1,0.3c0.1,0.1,0.2,0.1,0.3,0.1H8.5z"/>
<path fill="#FFFFFF" d="M13.4,43.9c0,0.6-0.2,1.1-0.5,1.5c-0.4,0.4-0.9,0.6-1.5,0.6c-0.7,0-1.2-0.2-1.5-0.6
	c-0.4-0.4-0.5-0.9-0.5-1.5v-3.5c0-0.6,0.2-1.1,0.5-1.5c0.4-0.4,0.9-0.6,1.5-0.6c0.7,0,1.2,0.2,1.5,0.6c0.3,0.4,0.5,0.9,0.5,1.5V43.9
	z M14.7,40.4c0-0.5-0.1-1-0.3-1.4c-0.2-0.4-0.4-0.8-0.7-1.1c-0.3-0.3-0.7-0.5-1.1-0.7c-0.4-0.2-0.9-0.2-1.4-0.2
	c-0.5,0-1,0.1-1.4,0.2c-0.4,0.2-0.8,0.4-1.1,0.7c-0.3,0.3-0.5,0.6-0.7,1.1c-0.2,0.4-0.3,0.9-0.3,1.4v3.5c0,0.5,0.1,1,0.3,1.4
	c0.2,0.4,0.4,0.8,0.7,1.1c0.3,0.3,0.7,0.5,1.1,0.7c0.4,0.2,0.9,0.2,1.4,0.2c0.5,0,1-0.1,1.4-0.2c0.4-0.2,0.8-0.4,1.1-0.7
	c0.3-0.3,0.5-0.6,0.7-1.1c0.2-0.4,0.3-0.9,0.3-1.4V40.4z M3.8,47.1c0.1,0,0.2,0,0.3-0.1c0.1-0.1,0.1-0.2,0.1-0.3v-8
	c0-0.1,0-0.1,0.1-0.1h2.2c0.1,0,0.2,0,0.3-0.1C6.9,38.3,7,38.2,7,38.1v-0.4c0-0.1,0-0.2-0.1-0.3c-0.1-0.1-0.2-0.1-0.3-0.1h-6
	c-0.1,0-0.2,0-0.3,0.1C0.1,37.4,0,37.5,0,37.6v0.4c0,0.1,0,0.2,0.1,0.3c0.1,0.1,0.2,0.1,0.3,0.1h2.2c0.1,0,0.1,0,0.1,0.1v8
	c0,0.1,0,0.2,0.1,0.3c0.1,0.1,0.2,0.1,0.3,0.1H3.8z"/>
<path fill="#FFFFFF" d="M24.9,34.7c0.1,0,0.2,0,0.3-0.1c0.1-0.1,0.1-0.2,0.1-0.3v-3.5c0-0.1,0-0.1,0-0.2c0-0.1,0.1-0.1,0.2-0.1
	c0.7-0.2,1.3-0.6,1.7-1.2c0.4-0.6,0.6-1.3,0.6-2.1v-1.9c0-0.1,0-0.2-0.1-0.3c-0.1-0.1-0.2-0.1-0.3-0.1H27c-0.1,0-0.2,0-0.3,0.1
	c-0.1,0.1-0.1,0.2-0.1,0.3v1.9c0,0.3,0,0.6-0.1,0.8c-0.1,0.3-0.2,0.5-0.3,0.7c-0.2,0.2-0.4,0.3-0.6,0.5c-0.2,0.1-0.5,0.2-0.9,0.2
	c-0.3,0-0.6-0.1-0.9-0.2c-0.2-0.1-0.4-0.3-0.6-0.5c-0.2-0.2-0.3-0.4-0.3-0.7c-0.1-0.3-0.1-0.5-0.1-0.8v-1.9c0-0.1,0-0.2-0.1-0.3
	c-0.1-0.1-0.2-0.1-0.3-0.1h-0.5c-0.1,0-0.2,0-0.3,0.1c-0.1,0.1-0.1,0.2-0.1,0.3v1.9c0,0.8,0.2,1.6,0.6,2.1c0.4,0.6,1,1,1.8,1.2
	c0.1,0,0.2,0.2,0.2,0.3v3.5c0,0.1,0,0.2,0.1,0.3c0.1,0.1,0.2,0.1,0.3,0.1H24.9z M19.1,32.4c0,0.1,0,0.1,0,0.2c0,0.1-0.1,0-0.2,0
	l-2.7-1.6c-0.1,0-0.1-0.1-0.1-0.2c0-0.1,0-0.2,0-0.3l1.2-3.8c0-0.1,0.1-0.2,0.1-0.2c0.1,0,0.1,0.1,0.1,0.2L19.1,32.4z M20.9,34.4
	c0.1-0.1,0.2-0.3,0.1-0.5l-2.8-8.7c0-0.2-0.1-0.3-0.2-0.3c-0.1-0.1-0.2-0.1-0.3-0.1h-1c-0.1,0-0.2,0-0.3,0.1
	c-0.1,0.1-0.1,0.2-0.2,0.3l-2.9,9.1c-0.1,0.3,0,0.4,0.3,0.4h0.7c0.3,0,0.4-0.1,0.5-0.4l0.6-2c0-0.1,0.1-0.1,0.1-0.1
	c0.1,0,0.1,0,0.2,0l4.2,2.5c0.1,0.1,0.2,0.1,0.3,0.1c0.1,0,0.2,0,0.3-0.1L20.9,34.4z M11,31.5c0,0.6-0.2,1.1-0.5,1.5
	c-0.3,0.4-0.8,0.6-1.4,0.6c-0.3,0-0.6-0.1-0.9-0.2c-0.2-0.1-0.4-0.2-0.6-0.4c-0.2-0.2-0.3-0.4-0.3-0.6c-0.1-0.2-0.1-0.5-0.1-0.8
	v-6.3c0-0.1,0-0.2-0.1-0.3c-0.1-0.1-0.2-0.1-0.3-0.1H6.3c-0.1,0-0.2,0-0.3,0.1c-0.1,0.1-0.1,0.2-0.1,0.3v6.3c0,0.6-0.2,1.1-0.5,1.5
	c-0.3,0.4-0.8,0.6-1.4,0.6c-0.3,0-0.6-0.1-0.9-0.2c-0.2-0.1-0.4-0.2-0.6-0.4c-0.2-0.2-0.3-0.4-0.3-0.6c-0.1-0.2-0.1-0.5-0.1-0.8
	v-6.3c0-0.1,0-0.2-0.1-0.3c-0.1-0.1-0.2-0.1-0.3-0.1H1.1c-0.1,0-0.2,0-0.3,0.1c-0.1,0.1-0.1,0.2-0.1,0.3v6.3c0,0.5,0.1,0.9,0.2,1.4
	c0.2,0.4,0.4,0.8,0.7,1.1c0.3,0.3,0.6,0.5,1,0.7C3,34.8,3.5,34.8,4,34.8c0.5,0,1-0.1,1.4-0.3c0.4-0.2,0.7-0.4,1-0.8
	c0.1-0.1,0.3-0.1,0.4,0c0.1,0.1,0.3,0.3,0.4,0.4c0.2,0.1,0.3,0.2,0.5,0.3c0.2,0.1,0.4,0.2,0.6,0.2c0.2,0.1,0.5,0.1,0.8,0.1
	c0.5,0,0.9-0.1,1.3-0.2c0.4-0.2,0.7-0.4,1-0.7c0.3-0.3,0.5-0.6,0.7-1.1c0.2-0.4,0.2-0.9,0.2-1.4v-6.3c0-0.1,0-0.2-0.1-0.3
	c-0.1-0.1-0.2-0.1-0.3-0.1h-0.5c-0.1,0-0.2,0-0.3,0.1C11.1,25,11,25.1,11,25.2V31.5z"/>
<path fill="#FFFFFF" d="M28,19.1c0,0.6-0.2,1.1-0.5,1.5c-0.3,0.4-0.8,0.6-1.4,0.6c-0.3,0-0.6-0.1-0.9-0.2c-0.2-0.1-0.4-0.2-0.6-0.4
	c-0.2-0.2-0.3-0.4-0.3-0.6c-0.1-0.2-0.1-0.5-0.1-0.8v-6.3c0-0.1,0-0.2-0.1-0.3c-0.1-0.1-0.2-0.1-0.3-0.1h-0.5c-0.1,0-0.2,0-0.3,0.1
	c-0.1,0.1-0.1,0.2-0.1,0.3v6.3c0,0.6-0.2,1.1-0.5,1.5c-0.3,0.4-0.8,0.6-1.4,0.6c-0.3,0-0.6-0.1-0.9-0.2c-0.2-0.1-0.4-0.2-0.6-0.4
	c-0.2-0.2-0.3-0.4-0.3-0.6c-0.1-0.2-0.1-0.5-0.1-0.8v-6.3c0-0.1,0-0.2-0.1-0.3c-0.1-0.1-0.2-0.1-0.3-0.1h-0.5c-0.1,0-0.2,0-0.3,0.1
	c-0.1,0.1-0.1,0.2-0.1,0.3v6.3c0,0.5,0.1,0.9,0.2,1.4c0.2,0.4,0.4,0.8,0.7,1.1c0.3,0.3,0.6,0.5,1,0.7c0.4,0.2,0.9,0.2,1.3,0.2
	c0.5,0,1-0.1,1.4-0.3c0.4-0.2,0.7-0.4,1-0.8c0.1-0.1,0.3-0.1,0.4,0c0.1,0.1,0.3,0.3,0.4,0.4c0.2,0.1,0.3,0.2,0.5,0.3
	c0.2,0.1,0.4,0.2,0.6,0.2c0.2,0.1,0.5,0.1,0.8,0.1c0.5,0,0.9-0.1,1.3-0.2c0.4-0.2,0.7-0.4,1-0.7c0.3-0.3,0.5-0.6,0.7-1.1
	c0.2-0.4,0.2-0.9,0.2-1.4v-6.3c0-0.1,0-0.2-0.1-0.3c-0.1-0.1-0.2-0.1-0.3-0.1h-0.5c-0.1,0-0.2,0-0.3,0.1C28,12.6,28,12.7,28,12.8
	V19.1z M15.3,22.3c0.1,0,0.2,0,0.3-0.1c0.1-0.1,0.1-0.2,0.1-0.3v-0.4c0-0.1,0-0.2-0.1-0.3C15.6,21,15.5,21,15.3,21h-4
	c-0.1,0-0.1,0-0.1-0.1v-2.8c0-0.1,0-0.1,0.1-0.1h3.4c0.1,0,0.2,0,0.3-0.1c0.1-0.1,0.1-0.2,0.1-0.3v-0.4c0-0.1,0-0.2-0.1-0.3
	c-0.1-0.1-0.2-0.1-0.3-0.1h-3.4c-0.1,0-0.1,0-0.1-0.1v-2.6c0-0.1,0-0.1,0.1-0.1H15c0.1,0,0.2,0,0.3-0.1c0.1-0.1,0.1-0.2,0.1-0.3
	v-0.4c0-0.1,0-0.2-0.1-0.3c-0.1-0.1-0.2-0.1-0.3-0.1h-4.8c-0.1,0-0.2,0-0.3,0.1c-0.1,0.1-0.1,0.2-0.1,0.3v9c0,0.1,0,0.2,0.1,0.3
	c0.1,0.1,0.2,0.1,0.3,0.1H15.3z M7.1,22.3c0.1,0,0.2,0,0.3-0.1c0.1-0.1,0.1-0.2,0.1-0.3v-9c0-0.1,0-0.2-0.1-0.3
	c-0.1-0.1-0.2-0.1-0.3-0.1H6.6c-0.1,0-0.2,0-0.3,0.1c-0.1,0.1-0.1,0.2-0.1,0.3v6c0,0.1,0,0.1-0.1,0.1C6,19,6,19,5.9,18.9l-3.5-6.2
	c-0.1-0.1-0.2-0.2-0.3-0.3c-0.1-0.1-0.2-0.1-0.4-0.1H1.2c-0.1,0-0.2,0-0.3,0.1c-0.1,0.1-0.1,0.2-0.1,0.3v9c0,0.1,0,0.2,0.1,0.3
	c0.1,0.1,0.2,0.1,0.3,0.1h0.5c0.1,0,0.2,0,0.3-0.1c0.1-0.1,0.1-0.2,0.1-0.3v-6.4c0-0.1,0-0.1,0.1-0.1c0.1,0,0.1,0,0.2,0.1l3.7,6.5
	c0.1,0.1,0.2,0.3,0.3,0.3c0.1,0.1,0.2,0.1,0.3,0.1H7.1z"/>
<path fill="#FFFFFF" d="M5.8,7.6c0,0.1,0,0.1,0,0.2c0,0.1-0.1,0-0.2,0L2.8,6.1C2.7,6.1,2.7,6,2.7,6c0-0.1,0-0.2,0-0.3l1.2-3.8
	c0-0.1,0.1-0.2,0.1-0.2c0.1,0,0.1,0.1,0.1,0.2L5.8,7.6z M7.7,9.6c0.1-0.1,0.2-0.3,0.1-0.5L5,0.4c0-0.2-0.1-0.3-0.2-0.3
	C4.7,0,4.6,0,4.5,0h-1C3.3,0,3.2,0,3.1,0.1C3.1,0.1,3,0.2,2.9,0.4L0,9.5c-0.1,0.3,0,0.4,0.3,0.4H1c0.3,0,0.4-0.1,0.5-0.4l0.6-2
	c0-0.1,0.1-0.1,0.1-0.1c0.1,0,0.1,0,0.2,0l4.2,2.5C6.8,10,6.9,10,7,10c0.1,0,0.2,0,0.3-0.1L7.7,9.6z"/>
</svg>
