<?xml version="1.0" encoding="utf-8"?>
<!-- Generator: Adobe Illustrator 18.1.1, SVG Export Plug-In . SVG Version: 6.00 Build 0)  -->
<svg version="1.1" id="Layer_1" xmlns="http://www.w3.org/2000/svg" xmlns:xlink="http://www.w3.org/1999/xlink" x="0px" y="0px"
	 viewBox="0 0 1181 837" enable-background="new 0 0 1181 837" xml:space="preserve">
<g>
	<g>
		<path fill="#0C9AD6" d="M8.7,640c0-11.7,0.1-23.3-0.1-35c-0.1-4,1.5-6.4,5-8.3c19-10.2,37.9-20.6,56.9-30.8
			c3.6-1.9,4.7-4.1,4.7-8.1c-0.2-21.5,0-43-0.2-64.5c0-4.6,1.6-7.3,5.6-9.5c20.1-10.7,40-21.7,60-32.5c2.5-1.4,3.4-2.9,3.4-5.7
			c-0.1-17-0.2-34,0-51c0-3.1-1-4.6-3.7-6.1c-20-11.3-39.8-22.8-59.7-34c-4-2.3-5.6-5.1-5.5-9.6c0.1-21,0-42,0.1-63
			c0-3.3-1-5.1-3.8-6.6c-19.7-11.1-39.3-22.4-58.9-33.5c-3.3-1.8-4.6-4-4.6-7.9c0.2-23.5,0.2-47,0-70.5c0-3.7,1.3-5.8,4.4-7.5
			c21.5-11.6,42.9-23.2,64.3-35c3.7-2.1,6.7-1.3,10.2,0.6c19.3,10.6,38.8,21,58.1,31.7c2.7,1.5,4.5,1.4,7.2,0
			c19.3-10.7,38.8-21,58.1-31.7c3.9-2.2,7.1-2.2,11.1,0c19.9,11,40,21.7,59.9,32.7c3.1,1.7,5.4,1.8,8.6,0
			c17.5-9.8,35.2-19.3,52.9-28.8c3.2-1.7,4.4-3.5,4.4-7.2c-0.2-21.7,0-43.3-0.2-65c0-4.8,1.6-7.5,5.9-9.8
			c20.8-11.1,41.5-22.4,62.1-33.7c4.1-2.2,7.7-2.2,11.7,0c19.4,10.6,38.8,21.1,58.1,31.7c2.5,1.4,4.3,1.3,6.7-0.1
			c19-10.5,38.2-20.7,57.2-31.3c4.7-2.6,8.8-2.5,13.5,0.1c20.5,11.3,41,22.6,61.6,33.6c3.7,2,5.2,4.4,5.2,8.6c-0.2,21,0,42-0.1,63
			c0,3,0.8,4.6,3.6,6.1c18.5,9.8,36.8,19.8,55.1,30c2.7,1.5,4.6,1.5,7.3,0c19.2-10.6,38.5-20.9,57.7-31.5c4.3-2.4,7.8-2.3,12.1,0.1
			c20.8,11.5,41.6,22.8,62.5,34c3.5,1.9,5,4.1,4.9,8.2c-0.2,20.3,0,40.7-0.2,61c0,3.3,1,5,3.9,6.5c18.2,9.7,36.3,19.5,54.3,29.5
			c3.1,1.7,5.5,1.8,8.6,0.1c19.2-10.6,38.5-20.8,57.7-31.4c3.8-2.1,6.8-2.1,10.6,0c20,11.1,40.2,21.9,60.3,32.9
			c2.9,1.6,5.2,1.6,8.2,0c19.8-10.9,39.7-21.5,59.4-32.5c3.6-2,6.6-2,10.2,0c21.2,11.7,42.5,23.3,63.9,34.7c3.5,1.9,4.9,4.4,4.9,8.4
			c-0.1,22.8-0.1,45.7,0,68.5c0,4.5-1.8,7-5.5,9.1c-20.2,11.5-40.4,23.1-60.6,34.5c-2.8,1.6-3.9,3.2-3.9,6.5
			c0.2,18.8,0.2,37.7,0,56.5c0,3.5,1.2,5.2,4.3,6.8c19.5,10.4,38.8,21.1,58.2,31.5c4,2.2,5.7,4.9,5.7,9.5c-0.2,22.5-0.2,45,0,67.5
			c0,4.6-1.8,7.3-5.7,9.5c-20.8,11.8-41.6,23.6-62.3,35.7c-4.2,2.5-7.7,2.4-12-0.1c-19-11.1-38.3-21.9-57.4-33
			c-2.8-1.6-4.8-1.7-7.6,0c-19.1,11.1-38.4,21.9-57.4,33c-4.5,2.6-8,2.5-12.4-0.1c-19.5-11.4-39.2-22.4-58.7-33.8
			c-2.6-1.5-4.4-1.8-7.1-0.2c-18.5,10.8-37.1,21.4-55.7,31.9c-2.8,1.6-3.9,3.4-3.8,6.7c0.2,21.5,0,43,0.2,64.5
			c0,4.1-1.4,6.4-4.9,8.3c-21.2,12-42.4,24.1-63.6,36.4c-3.8,2.2-7,1.9-10.7-0.2c-19.2-11.2-38.6-22.1-57.8-33.3
			c-3-1.7-5.1-1.5-8,0.1c-19.2,11.2-38.6,22.1-57.8,33.2c-3.8,2.2-6.9,2.2-10.6,0c-20-11.6-40.1-22.9-60-34.5
			c-3.1-1.8-5.4-2-8.6-0.1c-17.4,10.1-34.8,20.1-52.3,29.9c-3.1,1.7-4,3.7-4,7.1c0.1,20,0,40,0.2,60c0,4.9-1.5,7.9-5.9,10.4
			c-21,11.8-41.8,23.8-62.6,35.9c-4,2.3-7.2,2.1-11.1-0.1c-19.2-11.2-38.6-22.1-57.8-33.3c-2.9-1.7-4.9-1.6-7.7,0
			c-19.1,11.1-38.4,21.9-57.4,33.1c-4.2,2.5-7.6,2.6-11.9,0.1c-20.9-12.2-42-24.2-63.1-36.1c-3.3-1.9-4.5-4.3-4.5-8
			c0.1-20.3,0-40.7,0.1-61c0-3.5-1.1-5.2-4.1-6.9c-18.3-10.2-36.4-20.6-54.5-31.2c-2.8-1.6-4.9-1.7-7.7,0
			c-19.4,11.3-38.9,22.3-58.3,33.5c-3.6,2.1-6.4,2.2-10.1,0.1c-21.2-12.4-42.6-24.5-64-36.6c-3.4-1.9-4.6-4.3-4.6-8
			C8.8,663,8.7,651.5,8.7,640z M764,262.6c18.9-10.8,36.8-21,54.7-31.5c1.2-0.7,2-3.3,2-5c0.1-17.1,0.1-34.3,0.1-51.4
			c0-1.2-0.3-2.4-0.4-3.6c-0.8,0-1.1-0.1-1.4,0.1c-17.7,9.8-35.3,19.6-52.9,29.5c-1,0.6-1.9,2.3-1.9,3.4
			C764,223.3,764,242.4,764,262.6z M548,614.2c-1.1,0.3-1.6,0.4-2,0.6c-17.5,9.7-35.1,19.4-52.5,29.3c-1.3,0.7-2.3,3.1-2.4,4.7
			c-0.2,14.3-0.1,28.6-0.1,42.9c0,4.4,0,8.8,0,13.6c1.6-0.4,2.3-0.5,2.8-0.8c17.3-9.9,34.5-19.7,51.7-29.7c1.2-0.7,2.3-2.8,2.3-4.3
			C548,652,548,633.3,548,614.2z M820.7,615.3c-1,0-1.4-0.1-1.7,0c-17.6,9.8-35.1,19.5-52.6,29.4c-1.3,0.7-2.3,3.1-2.4,4.7
			c-0.2,8-0.1,16-0.1,24c0,10.8,0,21.5,0,32.8c1.2-0.4,1.8-0.6,2.3-0.8c17.3-9.8,34.6-19.7,51.9-29.6c1.2-0.7,2.4-2.5,2.5-3.8
			C820.8,653.1,820.7,634.3,820.7,615.3z M698.1,374.7c18.5-10.6,36.4-20.7,54.1-31c0.9-0.5,1.6-2.1,1.6-3.2
			c0.1-18.9,0.1-37.9,0.1-57.3c-1.1,0.4-1.7,0.5-2.2,0.8c-17.4,9.7-34.9,19.3-52.1,29.2c-1.4,0.8-2.4,3.4-2.4,5.1
			c-0.1,16.5,0,33,0.1,49.5C697.3,369.9,697.8,371.9,698.1,374.7z M365.7,49.9c0.6,0.7,0.7,1,1,1.2c17,9.7,34,19.4,51.1,28.8
			c1.5,0.8,4.2,0.5,5.8-0.3c10.1-5.4,20-11,30-16.6c7.4-4.1,14.8-8.3,22.9-12.9C458,40,440.2,30.4,422.4,20.9
			c-1.1-0.6-3.1-0.1-4.4,0.6c-9.8,5.2-19.6,10.5-29.3,15.8C381.1,41.4,373.4,45.6,365.7,49.9z M25.4,162.2
			c18.1,10.2,35.5,20.1,53,29.8c1.3,0.7,3.9,0.4,5.3-0.4c8.4-4.4,16.6-9.1,24.8-13.7c9.2-5.1,18.4-10.3,27.6-15.4
			c-0.5-0.7-0.6-1.1-0.9-1.2c-17.3-9.4-34.6-18.9-52-28.2c-1.2-0.7-3.5-0.3-4.9,0.4c-9,4.7-17.8,9.6-26.7,14.4
			C43.1,152.5,34.6,157.2,25.4,162.2z M1044.4,269.2c18.1,10.3,35.2,20.1,52.4,29.6c1.6,0.9,4.5,0.5,6.2-0.4
			c10.7-5.7,21.2-11.7,31.8-17.6c6.7-3.8,13.5-7.6,20.2-11.3c-0.4-0.6-0.5-1-0.7-1.2c-17.3-9.5-34.6-18.9-52-28.2
			c-1.3-0.7-3.8-0.3-5.3,0.5c-10.9,5.7-21.6,11.6-32.4,17.5C1058.1,261.6,1051.6,265.2,1044.4,269.2z M499.7,50.2
			c17.8,10.1,34.7,19.8,51.9,29.3c1.7,1,4.9,0.9,6.6,0c10.9-5.7,21.5-11.8,32.2-17.8c6.6-3.7,13.2-7.4,20.4-11.4
			c-1.8-1.1-3-1.9-4.3-2.6C593.4,40.5,580,33.9,567.4,26c-8.6-5.4-15.4-5.3-24,0.1C529.4,34.7,514.7,42,499.7,50.2z M702.8,604.6
			c18.2,10.3,35.9,20.4,53.7,30.3c1,0.6,3.1-0.1,4.4-0.7c8.8-4.7,17.4-9.6,26.1-14.4c8.9-4.9,17.8-9.9,27.2-15.2
			c-18.1-9.9-35.6-19.5-53.1-28.9c-1.2-0.7-3.4-0.9-4.5-0.2C738.7,585,721,594.7,702.8,604.6z M769.5,492
			c18.2,10.3,35.5,20.2,52.9,29.8c1.3,0.7,3.9,0.5,5.3-0.3c16.7-9.1,33.4-18.4,50-27.7c0.9-0.5,1.6-1.3,2.7-2.2
			c-16.1-8.7-31.8-16.9-47.1-25.8c-5.9-3.5-10.2-3.4-16.1,0C801.8,474.8,785.9,483,769.5,492z M271,162.4c-0.9-0.7-1.5-1.3-2.2-1.6
			c-16.9-9.2-33.7-18.5-50.7-27.5c-1.4-0.7-3.9-0.5-5.3,0.3c-16.4,8.7-32.7,17.6-49,26.5c-1.1,0.6-2.1,1.4-3.5,2.4
			c17.9,10.1,35.4,20,52.9,29.8c1.1,0.6,3.3,0.4,4.5-0.3C235.5,182.3,253.1,172.4,271,162.4z M272,603.4c-1.3-0.9-2.1-1.6-2.9-2
			c-16.5-9.1-33.1-18.2-49.7-27.1c-1.5-0.8-4.2-0.4-5.8,0.4c-13.5,7.1-26.8,14.4-40.2,21.7c-3.9,2.1-7.7,4.3-12.3,6.8
			c18.3,10.3,35.8,20.3,53.5,30c1.2,0.6,3.5,0.1,4.9-0.6c6.3-3.3,12.5-6.9,18.7-10.3C249.3,616,260.3,609.8,272,603.4z
			 M1042.4,491.4c18.1,10.2,35.5,20.1,53.1,29.8c1.4,0.8,4.2,0.3,5.8-0.6c14.6-7.9,29-16.1,43.5-24.2c2.8-1.6,5.5-3.2,8.9-5.2
			c-18.5-10.1-36.3-19.7-54.1-29.2c-1-0.6-3.1,0.1-4.4,0.7c-11.1,5.9-22.2,11.9-33.3,17.9C1055.7,484.1,1049.3,487.7,1042.4,491.4z
			 M814.3,160.3c-18.4-10-36.2-19.7-54-29.3c-0.9-0.5-2.6-0.4-3.6,0.1c-17.8,9.6-35.6,19.3-53.9,29.2c18.1,10.2,35.6,20.2,53.2,30
			c1.2,0.7,3.6,0.3,5-0.4C778.6,180.3,796.1,170.5,814.3,160.3z M950.1,381.5c-0.7-0.6-1.1-1.2-1.7-1.5c-17-9.3-33.9-18.7-51-27.8
			c-1.3-0.7-3.8-0.4-5.3,0.4c-9.6,5-19,10.2-28.4,15.4c-7.9,4.3-15.9,8.7-24.4,13.3c18.1,10.2,35.4,20.1,52.7,29.7
			c1.3,0.7,3.6,0.7,4.9,0C914.6,401.3,932.2,391.5,950.1,381.5z M612.9,273c-18.4-10-35.9-19.6-53.4-28.9c-1.4-0.8-4.1-0.3-5.7,0.6
			c-10.3,5.4-20.4,11-30.6,16.5c-7,3.8-14,7.7-21.6,11.8c18.2,10.3,35.6,20.3,53.1,30c1.2,0.7,3.5,0.3,4.9-0.4
			c6-3.1,11.9-6.5,17.9-9.8C589,286.4,600.5,279.9,612.9,273z M679,160.7c-0.4-0.5-0.5-0.9-0.8-1c-17.5-9.5-34.9-19.1-52.4-28.5
			c-1.2-0.6-3.4-0.1-4.8,0.6c-12.7,6.8-25.4,13.7-38.1,20.6c-4.7,2.6-9.4,5.1-14.7,8c14.2,8.1,28.1,15,40.9,23.5
			c10,6.7,18.1,7.3,28.4,0.3C650.7,175.4,665.1,168.5,679,160.7z M298.6,162.6c0.9,0.7,1.3,1,1.7,1.3c17,9.7,34,19.3,51.1,28.8
			c1.2,0.7,3.5,0.5,4.8-0.2c9.9-5.3,19.7-10.9,29.6-16.4c7.8-4.3,15.5-8.7,24-13.4c-18.2-9.9-35.6-19.4-53.1-28.7
			c-1.4-0.7-3.9-0.6-5.3,0.1C333.8,143.4,316.5,152.9,298.6,162.6z M137.5,603.3c-1.3-0.9-1.8-1.3-2.4-1.6
			c-16.8-9.2-33.7-18.5-50.6-27.5c-1.4-0.7-3.9-0.5-5.3,0.3c-13.3,7.1-26.5,14.3-39.8,21.5c-4.2,2.3-8.3,4.6-12.9,7.1
			c18,10.2,35.2,20,52.6,29.7c1.2,0.7,3.3,0.9,4.4,0.3C101.4,623.4,119.2,613.5,137.5,603.3z M476.5,494.4
			c-18.4-10-36.1-19.7-53.9-29.2c-1.2-0.6-3.4,0-4.8,0.7c-9,4.7-17.8,9.6-26.7,14.4c-8.4,4.6-16.8,9.2-25.3,13.8
			c0.5,0.6,0.7,1,0.9,1.1c17.1,9.8,34.3,19.6,51.5,29.2c1.2,0.7,3.6,0.4,5-0.3C440.7,514.4,458.2,504.6,476.5,494.4z M1019.2,491.4
			c-16.2-8.8-32.1-17.1-47.5-26.2c-6.1-3.6-10.9-4-16.5,0.3c-3,2.3-6.7,3.7-10,5.5c-12.3,6.7-24.7,13.4-37.5,20.4
			c18,10.2,35.5,20.1,53,29.9c1.2,0.6,3.3,0.7,4.5,0C983.2,511.5,1001,501.6,1019.2,491.4z M635.6,491.7c0.7,0.7,0.9,1.2,1.3,1.4
			c17,9.7,34,19.4,51.1,28.8c1.3,0.7,3.8,0.3,5.3-0.5c16.4-9,32.8-18.2,49.1-27.3c1.1-0.6,2.1-1.4,3.6-2.5
			c-18.2-9.8-35.8-19.4-53.5-28.8c-1.2-0.6-3.5-0.2-4.9,0.5c-8.4,4.4-16.6,8.9-24.9,13.5C653.7,481.7,644.8,486.6,635.6,491.7z
			 M340.6,713.6c-1.1-0.8-1.8-1.4-2.5-1.8c-16.8-9.2-33.7-18.5-50.6-27.6c-1.2-0.7-3.5-0.3-4.8,0.4c-15.1,8-30,16.2-45,24.4
			c-2.5,1.4-5,2.8-7.9,4.4c17.7,10.1,34.9,19.8,52.1,29.4c1.4,0.8,4,1,5.4,0.3C304.9,733.5,322.4,723.7,340.6,713.6z M1017.5,268.5
			c-18.2-9.9-35.7-19.4-53.3-28.7c-1.6-0.8-4.5-0.3-6.3,0.6c-16.1,8.5-32.1,17.3-48.1,26c-1,0.6-2,1.3-3.4,2.4
			c18,10.2,35.4,20.1,52.9,29.9c1,0.6,3,0.5,4-0.1C981.2,288.8,999,278.9,1017.5,268.5z M611,494.4c-18.3-10-35.8-19.6-53.5-29.1
			c-1.3-0.7-3.8-0.2-5.3,0.6c-15.1,8-30,16.2-45,24.3c-2.4,1.3-4.7,2.7-7.5,4.2c17.9,10.1,35.2,20,52.6,29.6
			c1.4,0.8,3.9,0.7,5.3-0.1C575.2,514.4,592.7,504.6,611,494.4z M636.9,272.5c0.2,0.7,0.2,1,0.3,1c12.4,7.1,24.7,14.2,37.1,21.2
			c5.5,3.1,11,8.5,16.5,8.5c5.7,0,11.5-5.2,17.1-8.3c12.9-7.1,25.7-14.3,38.9-21.6c-0.9-0.8-1.3-1.3-1.8-1.6
			c-17-9.3-34-18.7-51-27.8c-1.2-0.6-3.3-0.5-4.5,0.1C672,253.4,654.5,262.9,636.9,272.5z M204.7,274.8
			c-18.3-10-35.8-19.6-53.5-28.9c-1.4-0.7-3.9-0.3-5.4,0.5c-8.4,4.3-16.6,8.9-24.9,13.5c-8.9,4.9-17.9,9.8-27.2,14.9
			c1,0.7,1.4,1.2,2,1.5c16.9,9.6,33.7,19.2,50.7,28.6c1.3,0.7,3.8,0.4,5.2-0.4c10.4-5.6,20.6-11.4,30.9-17.1
			C189.6,283.2,196.8,279.2,204.7,274.8z M93.3,490.5c18.3,10.4,35.7,20.3,53.2,30.1c1.1,0.6,3.2,0.3,4.5-0.4
			c4.5-2.2,8.8-4.7,13.1-7.2c13.3-7.4,26.6-14.8,40.3-22.5c-1.5-1-2.5-1.8-3.7-2.4c-16-8.7-32.1-17.3-48-26.2
			c-2.9-1.6-4.9-1.4-7.6,0.1c-6.7,3.9-13.7,7.4-20.5,11.2C114.4,478.9,104.2,484.5,93.3,490.5z M227.9,490.6
			c18.1,10.2,35.5,20,52.9,29.7c1.2,0.7,3.3,0.7,4.5,0.1c17.9-9.8,35.7-19.7,54-29.9c-18.2-9.9-36-19.6-53.8-29.2
			c-1.1-0.6-3-0.5-4,0.1C263.8,470.9,246.2,480.6,227.9,490.6z M544.2,162.9c-2.4-1.4-4-2.3-5.6-3.1c-11.8-6.4-24.1-12.1-35.1-19.6
			c-10.4-7-18.9-7.1-29.4-0.2c-12.8,8.4-26.8,15-40.3,22.3c0.3,0.6,0.4,1.1,0.6,1.2c17.3,9.8,34.6,19.7,51.9,29.4
			c0.9,0.5,2.6,0.6,3.5,0.1C507.6,183.2,525.4,173.3,544.2,162.9z M679.6,604.6c-14.3-7.8-28.1-14.4-40.8-22.7
			c-10.4-6.8-18.9-6.9-29.4-0.1c-12.8,8.4-26.9,15-41,22.6c1.9,1.2,3.3,2,4.7,2.8c14,7.9,28.2,15.4,41.9,23.9
			c6.4,4,11.3,4.4,17.3-0.1c3.3-2.5,7.2-4.1,10.8-6.1C655,618.3,666.9,611.7,679.6,604.6z M424,373.9c1.6-0.4,2.1-0.5,2.5-0.7
			c17.4-9.9,34.9-19.8,52.2-29.9c1.2-0.7,2.1-2.9,2.2-4.4c0.2-6,0.1-12,0.1-18c0-12.6,0-25.2,0-37.9c-0.9,0.1-1.5,0-1.8,0.2
			c-17.7,9.8-35.3,19.6-52.9,29.6c-1.1,0.6-2.1,2.6-2.1,3.9C424,335.7,424,354.6,424,373.9z M425,815.7
			c19.3-11.1,37.1-21.1,54.6-31.4c1.3-0.7,2.2-3.2,2.2-4.9c0.2-17.6,0.1-35.3,0.1-52.9c0-0.9-0.3-1.8-0.5-3.2
			c-18.4,10.3-36.4,20.2-54.2,30.3c-1.1,0.6-2.1,2.5-2.2,3.9C425,776.5,425,795.5,425,815.7z M1162,279.5c-1.1,0.4-1.8,0.5-2.3,0.8
			c-17.1,9.5-34.2,19-51.2,28.8c-1.6,1-3.1,3.8-3.1,5.8c0,18.1,0.3,36.2,0.5,54.4c0,0.4,0.2,0.8,0.5,1.6
			c18-10.3,35.9-20.5,53.6-30.8c1.1-0.6,1.9-2.6,1.9-4C1162,317.4,1162,298.8,1162,279.5z M1024,278.8c-1.2,0.5-1.8,0.6-2.3,0.9
			c-17.4,9.7-34.9,19.3-52.2,29.2c-1.3,0.7-2.3,3.1-2.4,4.7c-0.2,10.5-0.1,21-0.1,31.5c0,7.9,0,15.8,0,24.6
			c19-10.5,36.8-20.2,54.6-30.2c1.3-0.7,2.2-3.2,2.3-4.9c0.2-10.5,0.1-21,0.1-31.5C1024,295.1,1024,287.2,1024,278.8z M278,172.5
			c-1.6,0.7-2.6,1-3.4,1.4c-16.8,9.3-33.6,18.8-50.5,28c-2.7,1.5-3.1,3.4-3.1,6.1c0.2,17,0.2,34,0.3,50.9c0,1.1,0.3,2.1,0.4,3.3
			c0.9-0.1,1.4-0.1,1.8-0.3c17.4-9.6,34.8-19.1,52.2-28.8c1.1-0.6,2.2-2.5,2.2-3.8C278,210.5,278,191.9,278,172.5z M345.7,501.1
			c-1.1,0.1-1.5,0-1.8,0.2c-17.6,9.7-35.1,19.4-52.6,29.3c-1.3,0.7-2.3,3.2-2.3,4.8c-0.2,9.2-0.1,18.3-0.1,27.5c0,9.2,0,18.5,0,28.7
			c18.9-10.5,37-20.4,55-30.5c0.9-0.5,1.7-2.1,1.7-3.2C345.8,539,345.7,520.2,345.7,501.1z M1084.3,379.7c-0.5-0.6-0.7-1.1-1.1-1.4
			c-16.9-9.5-33.8-19.1-50.8-28.4c-1.3-0.7-3.8-0.3-5.3,0.4c-6.8,3.4-13.5,7.2-20.2,10.8c-10.5,5.7-21.1,11.5-32.3,17.7
			c18.4,10.4,36.2,20.5,54,30.4c0.9,0.5,2.5,0.1,3.5-0.4C1049.3,399.3,1066.6,389.6,1084.3,379.7z M338.8,273c-2-1.3-3.3-2.2-4.7-3
			c-12.2-7-24.9-13.3-36.6-21.1c-9.3-6.2-17.4-7.2-26.1,0.1c-0.9,0.7-2,1.2-3,1.7c-13.1,7.1-26.2,14.2-39.8,21.6
			c17.9,10.1,35.2,20,52.7,29.6c1.6,0.9,4.5,0.5,6.2-0.4c11.9-6.4,23.6-13,35.3-19.6C327.9,279.1,333.1,276.2,338.8,273z
			 M696.8,614.7c-0.3,1.1-0.5,1.5-0.5,2c0,18.1-0.1,36.3,0.1,54.4c0,1.7,1.9,4.1,3.5,5.1c16,9.4,32.2,18.6,48.3,27.8
			c1.3,0.7,2.7,1.4,4,2c0-19.6,0.1-38.6-0.1-57.5c0-1.5-1.8-3.4-3.2-4.3c-7.7-4.6-15.5-8.9-23.3-13.3
			C716,625.5,706.5,620.2,696.8,614.7z M752.5,262.2c0.1-1.4,0.3-2,0.3-2.6c-0.2-18.3-0.3-36.6-0.7-54.9c0-1.6-1.7-3.8-3.2-4.7
			c-11.7-6.9-23.6-13.5-35.5-20.2c-5.4-3.1-10.8-6.1-17.1-9.6c0,20.1,0,39,0.1,57.9c0,1.1,1.3,2.7,2.4,3.3
			C716.4,241.6,734.1,251.7,752.5,262.2z M1160.2,501.7c-1.4,0.6-2.1,0.8-2.8,1.2c-17.1,9.5-34.3,18.9-51.3,28.7
			c-1.5,0.9-2.7,3.6-2.7,5.5c-0.1,12.6,0.3,25.3,0.4,37.9c0.1,5.9,0,11.8,0,18.4c18.7-10.7,36.4-20.7,54-31c1.3-0.7,2.2-3.2,2.2-4.8
			c0.2-12,0.1-24,0.1-36C1160.2,515.1,1160.2,508.7,1160.2,501.7z M277.2,592.1c0-19.7,0.1-38.7-0.1-57.6c0-1.5-1.7-3.5-3.2-4.3
			c-16.2-9.4-32.5-18.6-48.9-27.8c-1-0.6-2.2-0.9-3.8-1.4c0,19.1-0.1,37.6,0.2,56.1c0,1.8,1.8,4.1,3.5,5.1
			c9.4,5.7,18.9,11,28.5,16.4C261.2,583,269.1,587.5,277.2,592.1z M414.2,388c-1.2,0.4-1.7,0.4-2.1,0.7
			c-17.4,9.6-34.8,19.2-52.1,29.1c-1.4,0.8-2.6,3.3-2.6,5.1c-0.1,10.6,0.3,21.3,0.4,31.9c0.1,8,0,16.1,0,25
			c18.9-10.8,36.6-21,54.4-31.3c0.9-0.5,1.9-2,1.9-3C414.2,426.5,414.2,407.5,414.2,388z M548.8,392.7c-1.5,0.4-2,0.4-2.4,0.6
			c-17,9.5-33.9,18.9-50.8,28.5c-1.3,0.7-2.4,3-2.4,4.7c-0.2,9-0.1,18-0.1,27c0,9.8,0,19.5,0,29.8c1.3-0.4,2.2-0.5,2.8-0.9
			c16.7-9.5,33.4-19,50-28.8c1.5-0.9,2.7-3.6,2.8-5.5c0.3-11.3,0.1-22.7,0.1-34C548.8,407.1,548.8,400.2,548.8,392.7z M901.2,481.4
			c2-0.9,3.6-1.6,5.2-2.5c15.5-8.6,31-17.2,46.6-25.7c2.9-1.6,3.9-3.3,3.9-6.6c-0.2-16.8-0.1-33.7-0.1-50.5c0-1.4-0.2-2.8-0.4-4.8
			c-18.6,10.4-36.6,20.4-54.5,30.5c-1,0.6-1.6,2.8-1.6,4.2c0.1,17.5,0.3,35,0.5,52.4C900.9,479.3,901,480.1,901.2,481.4z M696,593.3
			c1.6-0.3,2.3-0.3,2.8-0.6c16.8-9.6,33.7-19.2,50.4-29c1.4-0.8,2.5-3.5,2.5-5.3c0.2-14,0.1-27.9,0.1-41.9c0-4.4,0-8.8,0-13.2
			c-0.9,0-1.3-0.1-1.6,0c-17.4,9.6-34.8,19.2-52.1,29c-1,0.6-2,2.2-2,3.4C696,554.7,696,573.6,696,593.3z M223,478.9
			c1.2-0.3,2-0.4,2.7-0.7c16.9-9.6,33.8-19.2,50.5-29c1.4-0.8,2.4-3.4,2.5-5.2c0.2-17.2,0.1-34.3,0.1-51.5c0-1.2-0.3-2.4-0.5-4.2
			c-18.3,10.2-36,20-53.6,29.9c-0.9,0.5-1.5,2.5-1.6,3.8C223,440.8,223,459.6,223,478.9z M482,504.7c-18,10-35,19.6-52.1,29
			c-2.9,1.6-3.9,3.3-3.9,6.6c0.2,17.5,0.2,34.9,0.3,52.4c0,1.1,0.3,2.1,0.5,3.6c18-10.3,35.6-20.3,53.1-30.5c1-0.6,2-2.3,2-3.5
			C482,543.5,482,524.5,482,504.7z M1024.8,502.5c-0.9,0-1.3,0-1.5,0.1c-17.3,9.6-34.6,19.1-51.7,28.9c-1.3,0.7-2.3,3.1-2.4,4.7
			c-0.2,9.2-0.1,18.3-0.1,27.5c0,9.6,0,19.2,0,28.8c1,0.1,1.4,0.2,1.6,0.1c17.2-9.8,34.4-19.5,51.4-29.5c1.4-0.8,2.5-3.1,2.5-4.8
			C1024.8,539.8,1024.8,521.3,1024.8,502.5z M830.8,593.3c0.8,0,1.2,0,1.4-0.1c17.5-10,34.9-19.9,52.3-30c1.4-0.8,2.5-3.4,2.5-5.2
			c0.2-12,0.1-24,0.1-36c0-6.4,0-12.9,0-20.1c-18.6,10.4-36.6,20.3-54.5,30.4c-0.9,0.5-1.8,2.1-1.8,3.2
			C830.8,554.7,830.8,574,830.8,593.3z M1092.2,389c-2,1-3.6,1.7-5.2,2.6c-13.6,7.6-27,15.7-41,22.5c-8.2,4-11.9,8.9-10.3,17.9
			c0.6,3.1,0.1,6.3,0.1,9.5c0,12.7,0,25.5,0,38.4c1.1-0.1,1.7,0,2-0.2c17.4-9.9,34.8-19.9,52.2-29.9c1-0.6,2-2.3,2-3.5
			C1092.2,427.4,1092.2,408.5,1092.2,389z M426,152.5c18.7-10.7,36.4-20.8,54-31.1c1.2-0.7,1.8-3.3,1.9-5c0.1-17,0.1-34,0.1-50.9
			c0-1.4-0.1-2.8-0.3-4.8c-18.2,10.2-35.9,19.9-53.5,29.9c-1.1,0.6-2.1,2.6-2.1,4C426,113.5,426,132.4,426,152.5z M493.3,60.1
			c0,20-0.1,38.8,0.1,57.5c0,1.4,1.8,3.4,3.3,4.2c10.7,6.3,21.5,12.4,32.3,18.6c6.7,3.8,13.4,7.6,20.9,11.9
			c-0.3-5.5-0.7-10-0.7-14.4c-0.1-14.1-0.2-28.3-0.1-42.4c0-2.8-0.7-4.4-3.3-5.8c-6.9-3.6-13.6-7.7-20.3-11.5
			C515.1,72.3,504.7,66.5,493.3,60.1z M698.9,391.4c-0.4,1.3-0.6,1.8-0.6,2.2c0,18.2-0.1,36.3,0.1,54.5c0,1.6,1.8,3.8,3.3,4.7
			c16.2,9.4,32.5,18.6,48.8,27.8c1.2,0.7,2.5,1,3.5,1.4c0-19.5,0-38.5-0.1-57.5c0-1.2-1.4-2.8-2.6-3.5c-4.4-2.7-8.9-5.1-13.4-7.7
			C725.1,406.2,712.2,398.9,698.9,391.4z M224.2,723.7c-0.5,0.8-0.8,1.1-0.8,1.3c-0.1,18.5-0.2,37,0,55.4c0,1.5,1.7,3.5,3.1,4.4
			c16.5,9.6,33.1,19,49.6,28.4c1,0.6,2.2,1,2.9,1.3c0-19.3,0.1-38.2-0.1-57.2c0-1.5-1.6-3.5-3-4.3c-11.7-6.9-23.6-13.5-35.5-20.2
			C235,729.8,229.6,726.7,224.2,723.7z M549.8,596.5c0-2.8,0-4.6,0-6.4c-0.2-16.5-0.6-32.9-0.6-49.4c0-3.6-1-5.7-4.2-7.4
			c-15.5-8.6-30.9-17.4-46.3-26.1c-1.5-0.8-3.1-1.5-5.3-2.5c0,19.5,0,38.3,0.1,57.1c0,1.3,1.2,3.1,2.4,3.8
			C513.4,575.7,531.1,585.8,549.8,596.5z M278.8,374.5c-0.3-4.8-0.6-8.4-0.6-12.1c-0.1-14.8-0.2-29.6-0.1-44.4c0-3-0.8-4.7-3.6-6.3
			c-16-8.8-31.8-17.9-47.7-26.9c-1.3-0.7-2.7-1.3-4.6-2.2c0,19.4-0.1,37.9,0.1,56.3c0,1.7,1.6,3.9,3.1,4.9
			c5.3,3.4,10.9,6.4,16.4,9.5C253.9,360.2,265.9,367.1,278.8,374.5z M627.8,482.7c18.8-10.4,36.7-20.2,54.4-30.2
			c1.1-0.6,1.7-3,1.7-4.5C684,432,684,416,684,400c0-2.5,0-5.1,0-8.3c-18.6,10.4-36.4,20.2-54.1,30.3c-1.4,0.8-2.5,3.4-2.6,5.2
			c0,12.1,0.3,24.3,0.4,36.4C627.9,469.6,627.8,475.5,627.8,482.7z M357.7,282.8c-0.4,0.8-0.6,1.1-0.6,1.4c0,18.5-0.1,37,0.1,55.4
			c0,1.5,1.6,3.5,3,4.3c16.2,9.5,32.5,18.7,48.8,28c1.2,0.7,2.6,1.2,3.9,1.8c0-19.2,0.1-38-0.1-56.8c0-1.6-1.6-3.9-3.2-4.8
			c-14.8-8.6-29.7-16.9-44.6-25.3C362.5,285.5,360.1,284.1,357.7,282.8z M292,172.7c0,19.2,0.1,37.4-0.1,55.7c0,3.4,1.2,5,3.9,6.5
			c15.7,8.9,31.4,17.9,47.1,26.9c1.5,0.9,3.1,1.7,5.1,2.8c0-19.7,0-38.7-0.1-57.6c0-1.3-1.1-3.1-2.3-3.8
			C328.1,193,310.5,183.1,292,172.7z M290,387.4c0,19.7-0.1,38.4,0.1,57c0,1.6,1.8,3.8,3.3,4.7c14.9,8.7,29.9,17.3,44.9,25.8
			c2.4,1.4,4.8,2.7,7.6,4.3c0-14.8,0-29,0-43.1c0-5.6,1.6-12.3-0.9-16.6c-2.5-4.2-9.1-6.1-14-8.9C317.7,403,304.3,395.5,290,387.4z
			 M616,483.6c0-20.1,0.1-39.2-0.1-58.3c0-1.2-1.6-2.7-2.8-3.4c-16.6-9.5-33.2-18.9-49.8-28.2c-0.9-0.5-1.9-0.8-3.2-1.3
			c0,16.3,0.6,32.2-0.2,47.9c-0.5,8.7,2.3,13.3,10,17.2C585.2,465.4,600.1,474.5,616,483.6z M1092,593.1c0-19.9,0.1-39-0.1-58.1
			c0-1.3-1.7-3.1-3.1-3.9c-16-9.2-32-18.2-48-27.2c-1.3-0.8-2.7-1.4-4.7-2.4c0,19.6,0,38.2,0.1,56.8c0,1.4,1,3.3,2.1,4
			C1055.8,572.5,1073.6,582.6,1092,593.1z M968,388.5c0,19.9-0.1,38.9,0.2,57.8c0,1.4,2,3.2,3.5,4.1c11.8,6.9,23.6,13.6,35.4,20.4
			c5.4,3.1,10.9,6.2,16.3,9.3c0.4-0.7,0.7-1,0.7-1.2c0-18.8,0-37.6-0.2-56.5c0-1.1-1.1-2.7-2.2-3.3C1004.2,409,986.6,399,968,388.5z
			 M562,614.5c0,19.6-0.1,38.3,0.1,56.9c0,1.6,1.6,3.8,3.1,4.7c13.4,7.9,27,15.6,40.6,23.4c3.8,2.2,7.7,4.3,12.1,6.8
			c0-16.7-0.5-32.7,0.2-48.6c0.4-8.5-2-13.4-9.9-17.4C592.8,632.6,577.9,623.5,562,614.5z M763,501.8c0,19.9-0.1,38.9,0.1,57.8
			c0,1.3,1.7,3.1,3,3.8c16.3,9.5,32.8,18.9,49.2,28.3c1,0.6,2.2,0.9,3.6,1.5c0-19.6,0-38.6-0.1-57.6c0-1-0.9-2.5-1.7-3.1
			C799.5,522.4,781.7,512.3,763,501.8z M495,282.8c0,19.8-0.1,38.5,0.1,57.3c0,1.5,1.7,3.5,3.1,4.3c9.7,5.8,19.5,11.3,29.3,16.9
			c7.6,4.3,15.1,8.7,22.7,13c0.5-0.7,0.8-1,0.8-1.2c0-18.8,0-37.6-0.1-56.5c0-1.1-0.9-2.6-1.8-3.1
			C531.4,303.4,513.7,293.3,495,282.8z M358.4,723.5c-0.2,1.3-0.3,1.9-0.3,2.5c0,18-0.1,35.9,0.1,53.9c0,1.8,1.8,4.2,3.4,5.1
			c16.5,9.7,33,19.1,49.6,28.6c0.8,0.4,1.7,0.7,2.6,1c0-18.8-0.1-37.3,0.1-55.7c0-3-1.1-4.8-3.7-6.2c-10.6-5.8-21.1-11.9-31.6-17.8
			C371.9,731.1,365.3,727.4,358.4,723.5z M358.8,60.2c0,19.9-0.1,38.7,0.1,57.5c0,1.4,1.8,3.4,3.3,4.2c16,9.4,32.2,18.6,48.3,27.8
			c1.2,0.7,2.5,1.1,4.1,1.8c0-19.5,0.1-38.3-0.1-57c0-1.5-1.6-3.5-3.1-4.4c-5.5-3.4-11.2-6.5-16.8-9.7
			C383.1,73.8,371.4,67.3,358.8,60.2z M290,610.6c0,19.6-0.1,38.3,0.1,56.9c0,1.5,1.4,3.7,2.8,4.5c8.7,5.2,17.5,10.1,26.3,15.2
			c8.7,5,17.4,10,26.7,15.2c0-17.5-0.4-34.1,0.2-50.7c0.3-7.3-2.1-11.1-8.5-14.5C321.8,629,306.4,619.8,290,610.6z M153.8,172.2
			c0,19.9-0.1,38.7,0.1,57.5c0,1.5,1.8,3.4,3.3,4.2c10.3,6.1,20.7,12,31,17.9c7,4,14,8,21.5,12.2c0-19.8,0.1-38.9-0.1-57.9
			c0-1.3-1.7-3.1-3-3.9c-6.7-4-13.5-7.7-20.3-11.6C175.8,184.6,165.3,178.7,153.8,172.2z M617.8,262.1c0-19.2-0.1-37.5,0.1-55.8
			c0-3.6-1.5-5.3-4.3-6.9c-15.4-8.6-30.6-17.3-45.9-25.9c-1.7-0.9-3.4-1.7-5.6-2.9c0,14.2,0,27.6,0,41.1c0,6.1-1.8,13.4,0.9,18.1
			c2.7,4.6,9.9,6.6,15.2,9.7C591.2,247,604.3,254.4,617.8,262.1z M154,592.9c19.1-10.9,36.5-20.8,53.8-30.9c1.2-0.7,2-2.9,2-4.4
			c0.2-6.7,0.1-13.3,0.1-20c0-11.9,0-23.8,0-35.6c-0.6-0.2-0.8-0.3-0.9-0.3c-17.7,9.8-35.4,19.5-53,29.4c-1.1,0.6-1.9,2.7-1.9,4
			C154,553.9,154,572.7,154,592.9z M87,500.5c0,19.7-0.1,38.4,0.1,57c0,1.6,1.7,3.8,3.3,4.7c11.6,6.8,23.3,13.4,35,20.1
			c5.7,3.3,11.4,6.5,17.4,10c0-19.8,0-38.9-0.1-58c0-1.2-1.4-2.9-2.6-3.7c-4.6-2.9-9.5-5.5-14.2-8.2
			C113.1,515.2,100.5,508.1,87,500.5z M358.8,504.3c0,20-0.1,38.9,0.1,57.9c0,1.3,1.8,3,3.1,3.8c16.2,9.4,32.5,18.7,48.8,28
			c1.2,0.7,2.5,1.1,3.9,1.8c0-19.3,0-38.2-0.1-57c0-1.3-1-3.3-2.1-3.9C395,524.8,377.4,514.9,358.8,504.3z M20.5,613.7
			c-0.2,0.9-0.4,1.3-0.4,1.7c0,18.2-0.1,36.3,0.1,54.5c0,1.6,1.7,3.9,3.2,4.8c12.9,7.6,25.9,14.9,38.8,22.3c4.4,2.5,8.8,5,13.4,7.6
			c0.3-1.1,0.5-1.6,0.5-2c0-18.3,0-36.6-0.3-55c0-1.6-1.7-3.8-3.2-4.7c-16.1-9.3-32.3-18.5-48.4-27.6
			C23.1,614.6,21.8,614.2,20.5,613.7z M143,376.6c0-19.9,0.1-38.8-0.2-57.6c0-1.6-1.9-3.7-3.4-4.6c-11-6.5-22.2-12.7-33.3-18.9
			c-6.2-3.5-12.3-6.9-19-10.7c0,19.7,0,38.7,0.1,57.6c0,1.2,1.4,2.9,2.5,3.6c5.4,3.3,10.9,6.4,16.4,9.5
			C118.1,362.4,130.1,369.3,143,376.6z M19.6,172.4c-0.3,1.3-0.5,1.7-0.5,2.2c0,18.1-0.1,36.3,0.1,54.4c0,1.6,1.7,3.9,3.2,4.8
			c16.5,9.6,33,19.1,49.6,28.5c0.9,0.5,1.9,0.8,3,1.2c0-19.2,0.1-38-0.1-56.8c0-1.5-1.5-3.6-2.9-4.5c-4.9-3.1-10-5.8-15.1-8.7
			C44.6,186.5,32.4,179.6,19.6,172.4z M155.1,613.2c-0.1,2.4-0.3,3.8-0.3,5.3c0,16.6,0.1,33.3-0.1,49.9c0,3.5,1.2,5.3,4.2,7
			c15.9,8.9,31.7,18,47.5,27.1c1.2,0.7,2.5,1.2,4.3,2.1c0-19.7,0-38.8-0.1-57.9c0-1.1-1-2.5-2-3.1
			C191.1,633.5,173.5,623.6,155.1,613.2z M629.8,283c0,19.7-0.1,38.6,0.1,57.6c0,1.3,1.6,3.1,2.9,3.9c6.1,3.7,12.3,7.1,18.5,10.7
			c11.3,6.5,22.6,13,34.3,19.7c0-19.8,0.1-38.8-0.1-57.9c0-1.5-1.9-3.4-3.4-4.2c-10.6-6.2-21.3-12.2-32-18.2
			C643.6,290.7,637,287,629.8,283z M685,170.8c-15.2,8.4-29.2,17-43.9,24.2c-9.2,4.5-13,9.7-12.1,20.4c1.3,15.3,0.3,30.8,0.3,46.7
			c1.6-0.5,2-0.6,2.4-0.8c17-9.7,34-19.4,50.9-29.2c1.1-0.7,2.2-2.5,2.2-3.8C685,209.4,685,190.6,685,170.8z M629.2,706.9
			c18.2-10.4,34.9-20.1,51.7-29.4c3.2-1.8,4.2-3.9,4.1-7.5c-0.3-8.8-0.1-17.7-0.1-26.5c0-9.1,0-18.2,0-28.1c-2.1,1-3.5,1.7-4.9,2.4
			c-14.4,8-28.6,16.2-43.1,23.8c-5.8,3-8.2,6.2-7.9,13.2C629.8,671.6,629.2,688.6,629.2,706.9z M833.5,391.5c-0.3,1.1-0.4,1.6-0.4,2
			c0,18.2-0.1,36.3,0.1,54.5c0,1.6,1.6,3.9,3.1,4.8c13.3,7.8,26.7,15.4,40.1,23c3.9,2.2,8,4.3,12.5,6.7c0-19.5,0.1-38.1-0.2-56.8
			c0-1.7-2-4.1-3.7-5.1c-12.6-7.4-25.4-14.5-38.1-21.7C842.6,396.5,838.2,394.1,833.5,391.5z M899.8,278.6c0,19.8-0.1,38.6,0.2,57.4
			c0,1.6,1.9,3.6,3.5,4.6c16.2,9.4,32.5,18.7,48.8,27.9c1,0.6,2.2,1,3.5,1.5c0-16.7-0.1-32.8,0.1-48.9c0.1-7.4-1.6-12.6-9.2-16.4
			C930.9,296.9,915.9,287.7,899.8,278.6z M684.2,593.2c0-19.5,0.1-38.5-0.1-57.4c0-1.5-1.7-3.4-3.2-4.2c-8-4.7-16.1-9.2-24.2-13.8
			c-9.1-5.1-18.1-10.3-27.8-15.8c0,18.8,0.1,36.7-0.1,54.7c0,3.8,1,6,4.4,7.8c16,8.9,31.7,18,47.6,27.1
			C681.9,592.2,683.1,592.7,684.2,593.2z M426.8,172.8c0,19.8-0.1,38.7,0.1,57.7c0,1.3,1.6,3.1,2.9,3.9c16.5,9.6,33,19,49.5,28.5
			c0.9,0.5,2,0.8,2.7,1c0-19.5,0-38.7-0.1-58c0-1-1.1-2.4-2.1-2.9C462.6,193,445.1,183.2,426.8,172.8z M494,263.8
			c18.9-10.4,36.6-20.1,54.2-30.1c1.2-0.7,1.8-3.3,1.8-5.1c0.1-16.6,0.1-33.3,0.1-49.9c0-1.7,0-3.4,0-5.8
			c-18.6,10.4-36.4,20.3-54.1,30.3c-0.9,0.5-1.9,2-1.9,3C494,225,494,243.8,494,263.8z M617,504.4c-18.6,10.4-36.4,20.2-54,30.3
			c-1.2,0.7-2,2.9-2,4.4c-0.1,10,0,20,0.1,29.9c0,8.4,0,16.8,0,25.3c0.8,0,1.2,0,1.4-0.1c17.6-9.6,35.2-19.2,52.7-28.9
			c1-0.5,1.8-2.3,1.9-3.5C617,543.1,617,524.3,617,504.4z M222,703.8c2.5-1.3,4-1.9,5.4-2.7c15.7-8.6,31.3-17.3,47.1-25.8
			c2.9-1.6,3.9-3.3,3.9-6.6c-0.2-16.8-0.1-33.7-0.1-50.5c0-1.4-0.2-2.8-0.3-4.2c-0.8,0-1.2-0.1-1.4,0.1
			c-17.4,9.7-34.9,19.3-52.2,29.1c-1.1,0.6-2.2,2.5-2.2,3.9C222,665.7,222,684.1,222,703.8z M560.8,150.5c1.6-0.6,2.4-0.8,3.1-1.2
			c16.8-9.2,33.7-18.4,50.4-27.9c1.5-0.9,2.7-3.6,2.7-5.6c0.2-14.5,0.1-29,0.1-43.4c0-3.8,0-7.5,0-11.4c-1.1,0.2-1.6,0.1-2,0.3
			c-17.4,9.7-34.8,19.3-52.1,29.1c-1.1,0.6-2.1,2.5-2.1,3.8C560.8,112.7,560.8,131.2,560.8,150.5z M359.8,264.5
			c1.5-0.7,2.1-0.9,2.6-1.2c16.7-9.5,33.5-19,50.1-28.6c1.3-0.8,2.3-3.1,2.4-4.7c0.2-11.8,0.1-23.6,0.1-35.5c0-6.7,0-13.5,0-20.8
			c-1.2,0.5-1.8,0.7-2.3,1c-16.8,9.3-33.7,18.6-50.3,28.1c-1.6,0.9-2.9,3.6-2.9,5.5c-0.1,14.1,0.3,28.3,0.4,42.4
			C359.9,255,359.8,259.3,359.8,264.5z M155.8,387.6c0,19,0.1,37.2-0.1,55.3c0,3.4,1,5.3,4,7c15.8,8.8,31.4,17.9,47.1,26.8
			c1.5,0.9,3,1.7,4.3,2.4c0-19.6,0-38.7-0.1-57.8c0-1.2-1-2.9-2.1-3.5C191.6,407.8,174.2,398,155.8,387.6z M479.5,705.8
			c0.3-1.4,0.5-1.9,0.4-2.3c-0.2-18.5-0.4-37-0.9-55.4c0-1.6-1.9-3.7-3.4-4.6c-12.6-7.3-25.4-14.4-38.1-21.6
			c-4.3-2.4-8.5-4.8-13.2-7.5c-0.2,1.4-0.4,2-0.4,2.6c0,18-0.1,36,0.1,54c0,1.6,1.7,3.9,3.2,4.8c8.2,5,16.7,9.6,25,14.4
			C461.1,695.2,470,700.3,479.5,705.8z M957.2,593c0-19.5,0.1-38.4-0.1-57.3c0-1.6-1.7-3.8-3.3-4.7c-15.8-9.1-31.7-18.1-47.6-27.1
			c-1.2-0.7-2.6-1.2-4.4-2.1c0,14.7,0,28.8,0,43c0,5.5-1.6,12,0.8,16.1c2.4,4.1,8.8,5.9,13.6,8.7C929.8,577.4,943.5,585.2,957.2,593
			z M888,280.1c-1,0-1.4-0.1-1.6,0c-17.3,9.6-34.5,19.1-51.7,28.8c-1.4,0.8-2.3,3.4-2.3,5.2c0,13.6,0.3,27.3,0.5,40.9
			c0.1,4.9,0,9.8,0,15.6c18.4-10.5,35.8-20.5,53-30.5c1-0.6,2-2.3,2-3.5C888,317.9,888,299.1,888,280.1z M1038,279.1
			c0,19.7-0.1,38.7,0.1,57.6c0,1.3,1.6,3.1,3,3.9c8.8,5,17.7,9.8,26.5,14.7c8.5,4.7,17.1,9.3,25.6,14c0.4-0.8,0.7-1.1,0.7-1.4
			c0-18.2,0.1-36.3-0.1-54.5c0-1.5-1.6-3.5-3-4.4c-6.8-4.2-13.8-8-20.7-11.9C1059.6,291.2,1049.1,285.4,1038,279.1z M86.8,264.3
			c15.4-8.8,29.5-17.6,44.3-25c8.6-4.3,11.8-9.3,11.1-19c-1-15.5-0.3-31.2-0.3-46.8c-0.7,0-1.1-0.1-1.3,0.1
			c-17.3,9.6-34.6,19.1-51.7,28.9c-1.3,0.8-2.5,3-2.6,4.7c-0.1,5.5,0.4,10.9,0.4,16.4C86.9,236.8,86.8,250.1,86.8,264.3z
			 M481.4,483.5c0.2-1.4,0.3-2,0.3-2.6c-0.2-18.3-0.3-36.6-0.7-54.9c0-1.6-1.8-3.8-3.3-4.7c-15.1-8.7-30.3-17.2-45.4-25.8
			c-1.9-1.1-3.9-2.1-6.2-3.4c0,19.5-0.1,38.1,0.1,56.8c0,1.6,1.6,3.9,3.1,4.8c12,7.1,24.2,13.9,36.3,20.8
			C470.6,477.4,475.8,480.3,481.4,483.5z M618,283.6c-13.6,7.6-26.3,14.6-39.1,21.7c-5.3,3-12.6,5-15.3,9.6
			c-2.7,4.7-0.8,12-0.8,18.1c0,13.7,0,27.5,0,42.2c18.4-10.5,35.9-20.6,53.4-30.7c0.9-0.5,1.7-2,1.7-3.1
			C618,322.4,618,303.4,618,283.6z M291,814.5c0.8,0,1.2,0.1,1.5,0c17.1-9.8,34.3-19.5,51.3-29.5c1.3-0.8,2.3-3.1,2.3-4.8
			c0.2-7.8,0.1-15.6,0.1-23.5c0-10.7,0-21.5,0-32.5c-1.1,0.4-1.8,0.5-2.3,0.8c-16.8,9.3-33.7,18.6-50.4,28.2
			c-1.4,0.8-2.5,3.4-2.5,5.1c-0.2,10.3,0,20.6,0,30.9C291,797.7,291,806.1,291,814.5z M142.9,613.7c-15.7,8.7-30.5,17.5-45.9,25.2
			c-7.3,3.7-9.9,7.7-9.5,16.1c0.9,16.4,0.3,32.8,0.3,50.1c18.9-10.8,36.9-21.1,55.1-31.5C142.9,653.9,142.9,634.3,142.9,613.7z
			 M820.5,370c0.3-0.8,0.6-1,0.6-1.3c0-18.7,0-37.3-0.3-56c0-1.5-1.6-3.5-3-4.4c-8.9-5.2-17.9-10.2-26.8-15.3
			c-8.2-4.6-16.4-9.2-24.9-14c-0.2,1.2-0.4,1.8-0.4,2.4c0,18-0.1,36,0.1,54c0,1.8,1.8,4.2,3.4,5.2c8.5,5.2,17.2,10,25.9,15
			C803.6,360.4,812,365.2,820.5,370z M541.5,382.7C526.2,374,511.3,366,497,357c-6.7-4.2-11.7-4.5-18.6-0.2
			C464,366,449,374,434.2,382.5c0.4,0.6,0.6,1,0.8,1.2c16.6,9.4,33.2,18.9,49.9,28.2c1.2,0.7,3.5,0.4,4.8-0.3
			c6.9-3.6,13.7-7.5,20.5-11.3C520.4,394.5,530.7,388.7,541.5,382.7z M882.9,268.5c-18-9.8-35.4-19.2-52.8-28.5
			c-1.1-0.6-3.4,0.2-4.9,1c-10.3,5.8-20.5,11.7-30.7,17.5c-6.6,3.8-13.1,7.5-20.2,11.6c16.7,9.5,32.8,18.5,48.7,27.7
			c2.9,1.7,5,1.4,7.6-0.2c5.9-3.4,11.9-6.6,17.8-10C859.7,281.5,870.9,275.2,882.9,268.5z M815.3,381.6c-0.6-0.7-0.9-1.2-1.3-1.4
			c-16.7-9.2-33.4-18.3-50.2-27.3c-1.1-0.6-3-0.5-4,0.1c-17.3,9.7-34.4,19.6-52.2,29.8c2.2,1.3,3.9,2.3,5.6,3.3
			c10.4,5.9,20.7,11.8,31.1,17.7c5,2.8,10.2,7.8,15.2,7.7c5.3,0,10.6-4.7,15.8-7.6C788.7,396.6,801.9,389.1,815.3,381.6z M412,612.3
			c-0.8,0.2-1.3,0.2-1.7,0.4c-16.8,9.3-33.7,18.6-50.4,28.2c-1.4,0.8-2.5,3.4-2.5,5.1c0,12.5,0.3,24.9,0.5,37.4c0.1,6.1,0,12.2,0,18
			c0.8,0.3,1.1,0.5,1.1,0.5c17-9.7,34-19.3,51-29.1c1-0.6,1.9-2.3,1.9-3.5C412,650.4,412,631.5,412,612.3z M364.2,713.3
			c18.4,10.4,35.8,20.3,53.4,30c1.3,0.7,3.8,0.1,5.3-0.7c9.7-5.2,19.2-10.6,28.8-15.9c6.6-3.7,13.2-7.4,20.4-11.5
			c-2.2-1.3-3.6-2.3-5.2-3.2c-14.4-8.3-28.9-16.4-43.1-24.9c-4.2-2.5-7.3-2.5-11.6-0.1C396.6,695.9,380.8,704.3,364.2,713.3z
			 M473.7,272.9c-17.4-9.8-34.1-19.3-50.9-28.5c-1.3-0.7-3.8,0.1-5.4,1c-8.1,4.5-16.2,9.2-24.2,13.8c-8.7,5-17.4,10-26.5,15.2
			c14.6,8.3,28.6,16.2,42.6,24.1c2.2,1.2,4.2,2.8,6.5,3.5c1.8,0.5,4.2,0.5,5.8-0.3c7.7-4,15.1-8.3,22.7-12.5
			C453.9,283.9,463.4,278.6,473.7,272.9z M433.7,605.9c1.7,1.1,2.9,1.9,4.2,2.6c11.7,6.6,23.8,12.6,34.9,20c8.8,6,15.8,5.9,24.8,0.1
			c13.6-8.8,28.2-16,42.8-24.2c-14.6-8.3-28.9-15.8-42.6-24.5c-7.2-4.6-13.1-5.1-19.8,0.3c-2.9,2.4-6.6,3.8-9.9,5.7
			C456.8,592.6,445.5,599.1,433.7,605.9z M765.8,480.1c1.3-0.4,1.8-0.4,2.2-0.6c16.8-9.1,33.5-18.3,50.3-27.2
			c2.6-1.4,2.9-3.2,2.8-5.6c-0.1-15.3,0-30.6,0-46c0-2.7,0-5.4,0-8.9c-18.4,10.2-35.9,20-53.3,29.9c-1.1,0.6-1.9,2.6-1.9,3.9
			C765.8,443.5,765.8,461.5,765.8,480.1z M296.4,600.7c13.6,7.7,26.4,15,39.3,22.3c5.3,3,10.7,8.1,16.1,8.1c5.4,0,10.8-5.2,16.1-8.2
			c11.5-6.4,23-12.9,35-19.5c-1-0.8-1.4-1.3-1.9-1.6c-16.7-9.6-33.4-19.2-50.1-28.6c-1-0.6-2.9-0.5-3.9,0
			C330.3,582.2,313.7,591.3,296.4,600.7z M675.9,382.7c-16.9-9.7-33.2-19-49.5-28.2c-1.2-0.7-3.6-0.1-5,0.6
			c-9.4,5.2-18.8,10.6-28.1,16c-7.4,4.3-14.9,8.6-22.7,13.1c16.5,9.4,32.3,18.4,48.3,27.2c1.4,0.8,4.1,0.6,5.7-0.2
			c14.2-7.7,28.2-15.6,42.2-23.4C669.7,386.3,672.5,384.6,675.9,382.7z M296.4,377.6c14.8,8.4,29.3,15.7,42.9,24.6
			c8.9,5.9,15.9,6,24.8,0.1c11.6-7.7,24.3-13.9,36.6-20.7c-0.4-0.6-0.5-1-0.8-1.2c-17-9.8-33.9-19.5-51-29.2c-1-0.6-2.9-0.5-3.9,0
			C329.1,359.7,313.2,368.4,296.4,377.6z M266.1,381.6c-0.5-0.7-0.6-1.1-0.9-1.3c-17-9.8-33.9-19.5-51-29.2
			c-0.9-0.5-2.6-0.6-3.5-0.1c-16.2,8.7-32.3,17.5-48.9,26.5c18,10.2,35.6,20.3,53.3,30.1c1.1,0.6,3.3,0.3,4.5-0.4
			C235.2,398.8,250.5,390.3,266.1,381.6z M289.8,367.6c2.5-1.2,4.3-2,6-2.9c12.7-6.9,25-14.5,38.1-20.4c9-4.1,12.2-9.3,11.5-19.2
			c-1-13.7-0.3-27.5-0.3-42.1c-18.3,10.2-35.9,20-53.5,29.9c-0.9,0.5-1.7,2.1-1.8,3.1C289.8,332.9,289.8,349.8,289.8,367.6z
			 M211,284.7c-18.7,10.4-36.5,20.3-54.3,30.4c-1.2,0.7-2.3,2.5-2.3,3.9c-0.2,16.1-0.1,32.2-0.1,48.6c1.4-0.3,1.9-0.3,2.3-0.5
			c17.4-9.4,34.8-18.7,52.1-28.3c1.1-0.6,2.3-2.5,2.3-3.8C211,318.5,211,302.1,211,284.7z"/>
	</g>
</g>
</svg>
