<?xml version="1.0" encoding="utf-8"?>
<!-- Generator: Adobe Illustrator 18.1.1, SVG Export Plug-In . SVG Version: 6.00 Build 0)  -->
<svg version="1.1" id="Layer_1" xmlns="http://www.w3.org/2000/svg" xmlns:xlink="http://www.w3.org/1999/xlink" x="0px" y="0px"
	 viewBox="0 0 173.7 378.1" enable-background="new 0 0 173.7 378.1" xml:space="preserve">
<path fill="#08456B" d="M135.6,377.4c0.5,0,1-0.2,1.3-0.5c0.3-0.3,0.5-0.7,0.5-1.3v-3.5c0-0.5-0.2-1-0.5-1.3
	c-0.3-0.3-0.7-0.5-1.3-0.5h-2c-0.5,0-1,0.2-1.3,0.5c-0.3,0.3-0.5,0.7-0.5,1.3v3.5c0,0.5,0.2,1,0.5,1.3c0.3,0.3,0.7,0.5,1.3,0.5
	H135.6z M114.5,348.9c-0.5,0-0.8-0.3-0.8-0.8v-15.4c0-0.5,0.3-0.8,0.8-0.8h9.9c1,0,2,0.2,3,0.5c1,0.4,1.8,0.9,2.6,1.6
	c0.8,0.7,1.4,1.6,1.9,2.7c0.5,1.1,0.7,2.3,0.7,3.7c0,1.4-0.2,2.6-0.7,3.7c-0.5,1.1-1.1,1.9-1.9,2.7c-0.8,0.7-1.6,1.3-2.6,1.6
	c-1,0.4-2,0.5-3,0.5H114.5z M111.4,377.4c0.7,0,1.3-0.2,1.7-0.6c0.4-0.4,0.6-1,0.6-1.7v-18.5c0-0.5,0.3-0.8,0.8-0.8h10.4
	c2.1,0,4-0.4,5.9-1.2c1.8-0.8,3.4-1.9,4.8-3.3c1.3-1.4,2.4-3,3.2-4.9c0.8-1.8,1.2-3.8,1.2-5.9c0-2.1-0.4-4-1.2-5.9
	c-0.8-1.9-1.9-3.5-3.2-4.9c-1.3-1.4-2.9-2.5-4.8-3.3c-1.8-0.8-3.8-1.2-5.9-1.2h-16.2c-0.7,0-1.3,0.2-1.7,0.6c-0.4,0.4-0.6,1-0.6,1.7
	v47.7c0,0.7,0.2,1.3,0.6,1.7c0.4,0.4,1,0.6,1.7,0.6H111.4z M92.2,377.4c0.7,0,1.3-0.2,1.7-0.6c0.4-0.4,0.6-1,0.6-1.7v-47.7
	c0-0.7-0.2-1.3-0.6-1.7c-0.4-0.4-1-0.6-1.7-0.6h-2.7c-0.7,0-1.3,0.2-1.7,0.6c-0.4,0.4-0.6,1-0.6,1.7v47.7c0,0.7,0.2,1.3,0.6,1.7
	c0.4,0.4,1,0.6,1.7,0.6H92.2z M73.1,377.4c0.7,0,1.3-0.2,1.7-0.6c0.4-0.4,0.6-1,0.6-1.7v-47.7c0-0.7-0.2-1.3-0.6-1.7
	c-0.4-0.4-1-0.6-1.7-0.6h-2.7c-0.7,0-1.3,0.2-1.7,0.6c-0.4,0.4-0.6,1-0.6,1.7v19.3c0,0.5-0.3,0.8-0.8,0.8H49.2
	c-0.5,0-0.8-0.3-0.8-0.8v-19.3c0-0.7-0.2-1.3-0.6-1.7c-0.4-0.4-1-0.6-1.7-0.6h-2.7c-0.7,0-1.3,0.2-1.7,0.6c-0.4,0.4-0.6,1-0.6,1.7
	v47.7c0,0.7,0.2,1.3,0.6,1.7c0.4,0.4,1,0.6,1.7,0.6h2.7c0.7,0,1.3-0.2,1.7-0.6c0.4-0.4,0.6-1,0.6-1.7v-20c0-0.5,0.3-0.8,0.8-0.8
	h18.1c0.5,0,0.8,0.3,0.8,0.8v20c0,0.7,0.2,1.3,0.6,1.7c0.4,0.4,1,0.6,1.7,0.6H73.1z M1.6,369.3c-0.5,0.5-0.7,1.1-0.7,1.7
	c0.1,0.6,0.3,1.1,0.7,1.5c1.5,1.6,3.2,3,5.2,4c2,1.1,4.7,1.6,8.2,1.6c2.2,0,4.2-0.4,6.1-1.2c1.9-0.8,3.6-1.8,5-3.2
	c1.4-1.3,2.6-2.8,3.4-4.6c0.8-1.7,1.2-3.6,1.2-5.5c0-2.1-0.3-4-0.9-5.6c-0.6-1.6-1.5-3.1-2.6-4.3c-1.1-1.3-2.5-2.4-4.2-3.4
	c-1.6-1-3.5-2-5.6-2.9c-1.6-0.7-2.9-1.3-4-2c-1.1-0.7-2-1.4-2.7-2.1c-0.7-0.7-1.2-1.6-1.5-2.4c-0.3-0.9-0.5-1.9-0.5-3
	c0-0.9,0.2-1.7,0.6-2.5c0.4-0.8,0.9-1.5,1.6-2.1c0.7-0.6,1.5-1.1,2.5-1.5c0.9-0.4,2-0.6,3.1-0.6c1.6,0,3.2,0.4,4.5,1.2
	c1.4,0.8,2.4,1.5,3.1,2.2c0.6,0.6,1.2,0.8,1.6,0.8c0.5,0,0.9-0.3,1.5-0.8l1.8-1.8c1.1-1.1,1.1-2.2,0-3.2c-1.2-1.2-2.9-2.4-5-3.5
	c-2.1-1.1-4.6-1.7-7.5-1.7c-2.3,0-4.3,0.4-6.1,1.2c-1.8,0.8-3.4,1.8-4.7,3c-1.3,1.3-2.3,2.7-2.9,4.4c-0.7,1.6-1,3.3-1,5.1
	c0,2.1,0.3,4,0.9,5.6c0.6,1.6,1.4,3.1,2.6,4.4c1.1,1.3,2.5,2.4,4,3.5c1.6,1,3.3,2,5.3,2.9c3.1,1.5,5.3,2.9,6.7,4.3
	c1.4,1.4,2.1,3.2,2.1,5.5c0,2.1-0.8,3.8-2.4,5.1c-1.6,1.4-3.6,2-6.1,2c-1.1,0-2.1-0.1-3-0.3c-0.9-0.2-1.6-0.5-2.3-0.9
	c-0.7-0.4-1.3-0.8-1.8-1.2c-0.5-0.4-1-0.8-1.4-1.2c-0.5-0.4-1-0.6-1.6-0.7c-0.6-0.1-1.1,0.2-1.7,0.7L1.6,369.3z"/>
<path fill="#08456B" d="M104.6,312.4c0.7,0,1.3-0.2,1.7-0.6c0.4-0.4,0.6-1,0.6-1.7v-2.3c0-0.7-0.2-1.3-0.6-1.7
	c-0.4-0.4-1-0.6-1.7-0.6H83.5c-0.5,0-0.8-0.3-0.8-0.8V290c0-0.5,0.3-0.8,0.8-0.8h18.1c0.7,0,1.3-0.2,1.7-0.6c0.4-0.4,0.6-1,0.6-1.7
	v-2.3c0-0.7-0.2-1.3-0.6-1.7c-0.4-0.4-1-0.6-1.7-0.6H83.5c-0.5,0-0.8-0.3-0.8-0.8v-13.9c0-0.5,0.3-0.8,0.8-0.8h19.6
	c0.7,0,1.3-0.2,1.7-0.6c0.4-0.4,0.6-1,0.6-1.7v-2.3c0-0.7-0.2-1.3-0.6-1.7c-0.4-0.4-1-0.6-1.7-0.6H77.7c-0.7,0-1.3,0.2-1.7,0.6
	c-0.4,0.4-0.6,1-0.6,1.7v47.7c0,0.7,0.2,1.3,0.6,1.7c0.4,0.4,1,0.6,1.7,0.6H104.6z M56.6,295.4c0,3.1-0.8,5.6-2.4,7.7
	c-1.6,2.1-4.1,3.1-7.6,3.1c-1.7,0-3.2-0.3-4.5-0.8c-1.3-0.5-2.3-1.3-3.1-2.3c-0.8-1-1.4-2.1-1.8-3.4c-0.4-1.3-0.6-2.7-0.6-4.3v-33.1
	c0-0.7-0.2-1.3-0.6-1.7c-0.4-0.4-1-0.6-1.7-0.6h-2.7c-0.7,0-1.3,0.2-1.7,0.6c-0.4,0.4-0.6,1-0.6,1.7v33.1c0,3.1-0.8,5.6-2.4,7.7
	c-1.6,2.1-4.1,3.1-7.6,3.1c-1.7,0-3.2-0.3-4.5-0.8c-1.3-0.5-2.3-1.3-3.1-2.3c-0.8-1-1.4-2.1-1.8-3.4c-0.4-1.3-0.6-2.7-0.6-4.3v-33.1
	c0-0.7-0.2-1.3-0.6-1.7c-0.4-0.4-1-0.6-1.7-0.6H4.2c-0.7,0-1.3,0.2-1.7,0.6c-0.4,0.4-0.6,1-0.6,1.7v33.1c0,2.6,0.4,5,1.2,7.2
	c0.8,2.2,2,4,3.5,5.6c1.5,1.5,3.3,2.7,5.5,3.6c2.1,0.9,4.5,1.3,7.1,1.3c2.9,0,5.3-0.5,7.3-1.5c2-1,3.7-2.4,5.2-4.2
	c0.7-0.8,1.4-0.8,2.2,0c0.7,0.8,1.5,1.5,2.3,2.2c0.8,0.7,1.7,1.3,2.7,1.8c1,0.5,2.1,0.9,3.3,1.2c1.2,0.3,2.6,0.4,4.2,0.4
	c2.6,0,5-0.4,7.1-1.3c2.1-0.9,4-2.1,5.5-3.6c1.5-1.5,2.7-3.4,3.5-5.6c0.8-2.2,1.2-4.6,1.2-7.2v-33.1c0-0.7-0.2-1.3-0.6-1.7
	c-0.4-0.4-1-0.6-1.7-0.6h-2.7c-0.7,0-1.3,0.2-1.7,0.6c-0.4,0.4-0.6,1-0.6,1.7V295.4z"/>
<path fill="#0A9AD7" d="M168.6,247.4c0.5,0,1-0.2,1.3-0.5c0.3-0.3,0.5-0.7,0.5-1.3v-3.5c0-0.5-0.2-1-0.5-1.3
	c-0.3-0.3-0.7-0.5-1.3-0.5h-2c-0.5,0-1,0.2-1.3,0.5c-0.3,0.3-0.5,0.7-0.5,1.3v3.5c0,0.5,0.2,1,0.5,1.3c0.3,0.3,0.7,0.5,1.3,0.5
	H168.6z M158.4,247.4c0.8,0,1.3-0.3,1.6-0.8c0.3-0.5,0.3-1.2-0.1-2L146,215.8c-0.4-0.9-0.3-1.7,0.4-2.5l13-16.1
	c0.4-0.5,0.5-0.9,0.3-1.4c-0.2-0.5-0.7-0.7-1.4-0.7h-4.2c-1.3,0-2.3,0.4-2.9,1.2l-15.9,20.3c-0.3,0.4-0.5,0.5-0.8,0.4
	c-0.3-0.1-0.4-0.4-0.4-0.8v-18.9c0-0.7-0.2-1.3-0.6-1.7c-0.4-0.4-1-0.6-1.7-0.6H129c-0.7,0-1.3,0.2-1.7,0.6c-0.4,0.4-0.6,1-0.6,1.7
	v47.7c0,0.7,0.2,1.3,0.6,1.7c0.4,0.4,1,0.6,1.7,0.6h2.7c0.7,0,1.3-0.2,1.7-0.6c0.4-0.4,0.6-1,0.6-1.7v-14.8c0-1.1,0.3-2,1-2.8
	l4.5-5.6c0.3-0.3,0.5-0.4,0.8-0.3c0.3,0,0.5,0.2,0.6,0.5l11.2,23.3c0.6,1.4,1.6,2.1,2.8,2.1H158.4z M115.2,237.4
	c-0.5-0.5-1.1-0.7-1.7-0.7c-0.6,0.1-1.1,0.3-1.6,0.7c-1,0.9-2.2,1.7-3.8,2.6c-1.6,0.8-3.5,1.3-5.7,1.3c-3.2,0-5.8-1.1-7.6-3.2
	c-1.8-2.1-2.7-4.9-2.7-8.4v-16.9c0-1.6,0.2-3.1,0.7-4.5c0.5-1.4,1.1-2.6,2-3.7c0.9-1.1,2-1.9,3.2-2.5c1.3-0.6,2.7-0.9,4.4-0.9
	c2.4,0,4.2,0.4,5.6,1.2c1.4,0.8,2.4,1.5,3,2.2c0.6,0.6,1.2,0.8,1.6,0.8c0.5,0,1-0.3,1.5-0.8l1.8-1.8c1.1-1.1,1.1-2.2,0-3.2
	c-0.6-0.6-1.3-1.2-2.1-1.8c-0.8-0.6-1.8-1.2-3-1.7c-1.1-0.5-2.4-0.9-3.8-1.3c-1.4-0.3-2.9-0.5-4.6-0.5c-2.5,0-4.9,0.5-7,1.4
	c-2.2,0.9-4,2.2-5.6,3.8c-1.6,1.6-2.8,3.6-3.7,5.9c-0.9,2.3-1.3,4.8-1.3,7.4v16.9c0,2.7,0.4,5.2,1.3,7.5c0.9,2.3,2.1,4.2,3.7,5.9
	c1.6,1.6,3.4,2.9,5.6,3.8c2.2,0.9,4.5,1.3,7,1.3c3.5,0,6.3-0.6,8.5-1.8c2.2-1.2,4.1-2.6,5.8-4.2c0.4-0.4,0.6-0.9,0.7-1.5
	c0.1-0.6-0.2-1.2-0.7-1.7L115.2,237.4z M67.1,230.4c0,3.1-0.9,5.6-2.8,7.7c-1.8,2.1-4.5,3.1-8,3.1c-3.5,0-6.2-1-8-3.1
	c-1.8-2.1-2.8-4.6-2.8-7.7v-18.5c0-3.1,0.9-5.6,2.8-7.7c1.8-2.1,4.5-3.1,8-3.1c3.5,0,6.2,1,8,3.1c1.8,2.1,2.8,4.6,2.8,7.7V230.4z
	 M74.5,211.9c0-2.6-0.4-5-1.3-7.2c-0.9-2.2-2.2-4-3.8-5.6c-1.6-1.5-3.5-2.7-5.7-3.6c-2.2-0.9-4.6-1.3-7.2-1.3c-2.6,0-5,0.4-7.2,1.3
	c-2.2,0.9-4.1,2.1-5.7,3.6c-1.6,1.5-2.9,3.4-3.8,5.6c-0.9,2.2-1.3,4.6-1.3,7.2v18.5c0,2.6,0.4,5,1.3,7.2c0.9,2.2,2.2,4,3.8,5.6
	s3.5,2.7,5.7,3.6c2.2,0.9,4.6,1.3,7.2,1.3c2.6,0,5-0.4,7.2-1.3c2.2-0.9,4.1-2.1,5.7-3.6c1.6-1.5,2.9-3.4,3.8-5.6
	c0.9-2.2,1.3-4.6,1.3-7.2V211.9z M31.4,247.4c0.7,0,1.3-0.2,1.7-0.6c0.4-0.4,0.6-1,0.6-1.7v-2.3c0-0.7-0.2-1.3-0.6-1.7
	c-0.4-0.4-1-0.6-1.7-0.6h-21c-0.5,0-0.8-0.3-0.8-0.8v-42.4c0-0.7-0.2-1.3-0.6-1.7c-0.4-0.4-1-0.6-1.7-0.6H4.6
	c-0.7,0-1.3,0.2-1.7,0.6c-0.4,0.4-0.6,1-0.6,1.7v47.7c0,0.7,0.2,1.3,0.6,1.7c0.4,0.4,1,0.6,1.7,0.6H31.4z"/>
<path fill="#0A9AD7" d="M119.2,165.4c0,3.1-0.9,5.6-2.8,7.7c-1.8,2.1-4.5,3.1-8,3.1c-3.5,0-6.2-1-8-3.1c-1.8-2.1-2.8-4.6-2.8-7.7
	v-33.1c0-0.7-0.2-1.3-0.6-1.7c-0.4-0.4-1-0.6-1.7-0.6h-2.7c-0.7,0-1.3,0.2-1.7,0.6c-0.4,0.4-0.6,1-0.6,1.7v33.1c0,2.6,0.4,5,1.3,7.2
	c0.9,2.2,2.2,4,3.8,5.6c1.6,1.5,3.5,2.7,5.7,3.6c2.2,0.9,4.6,1.3,7.2,1.3c2.6,0,5-0.4,7.2-1.3c2.2-0.9,4.1-2.1,5.7-3.6
	c1.6-1.5,2.9-3.4,3.8-5.6c0.9-2.2,1.3-4.6,1.3-7.2v-33.1c0-0.7-0.2-1.3-0.6-1.7c-0.4-0.4-1-0.6-1.7-0.6h-2.7c-0.7,0-1.3,0.2-1.7,0.6
	c-0.4,0.4-0.6,1-0.6,1.7V165.4z M72.3,165.4c0,3.1-0.9,5.6-2.8,7.7c-1.8,2.1-4.5,3.1-8,3.1c-3.5,0-6.2-1-8-3.1
	c-1.8-2.1-2.8-4.6-2.8-7.7v-18.5c0-3.1,0.9-5.6,2.8-7.7c1.8-2.1,4.5-3.1,8-3.1c3.5,0,6.2,1,8,3.1c1.8,2.1,2.8,4.6,2.8,7.7V165.4z
	 M79.6,146.9c0-2.6-0.5-5-1.3-7.2c-0.9-2.2-2.2-4-3.8-5.6c-1.6-1.5-3.5-2.7-5.7-3.6c-2.2-0.9-4.6-1.3-7.2-1.3c-2.6,0-5,0.4-7.2,1.3
	c-2.2,0.9-4.1,2.1-5.7,3.6c-1.6,1.5-2.9,3.4-3.8,5.6c-0.9,2.2-1.3,4.6-1.3,7.2v18.5c0,2.6,0.4,5,1.3,7.2c0.9,2.2,2.2,4,3.8,5.6
	c1.6,1.5,3.5,2.7,5.7,3.6c2.2,0.9,4.6,1.3,7.2,1.3c2.6,0,5-0.4,7.2-1.3c2.2-0.9,4.1-2.1,5.7-3.6c1.6-1.5,2.9-3.4,3.8-5.6
	c0.9-2.2,1.3-4.6,1.3-7.2V146.9z M18.9,182.4c0.7,0,1.3-0.2,1.7-0.6c0.4-0.4,0.6-1,0.6-1.7v-18.5c0-0.4,0.1-0.8,0.2-1.1
	c0.2-0.3,0.4-0.6,0.8-0.7c3.9-1,6.9-3.1,9.1-6.2c2.2-3.1,3.3-6.9,3.3-11.2v-10c0-0.7-0.2-1.3-0.6-1.7c-0.4-0.4-1-0.6-1.7-0.6h-2.7
	c-0.7,0-1.3,0.2-1.7,0.6c-0.4,0.4-0.6,1-0.6,1.7v10c0,1.5-0.2,3-0.6,4.4c-0.4,1.4-1,2.5-1.8,3.5c-0.8,1-1.9,1.8-3.1,2.4
	c-1.3,0.6-2.8,0.9-4.5,0.9c-1.7,0-3.2-0.3-4.5-0.9c-1.3-0.6-2.3-1.4-3.1-2.4c-0.8-1-1.4-2.2-1.8-3.5c-0.4-1.4-0.6-2.8-0.6-4.4v-10
	c0-0.7-0.2-1.3-0.6-1.7c-0.4-0.4-1-0.6-1.7-0.6H2.3c-0.7,0-1.3,0.2-1.7,0.6c-0.4,0.4-0.6,1-0.6,1.7v10c0,4.5,1.1,8.2,3.4,11.3
	c2.3,3.1,5.4,5.1,9.4,6.3c0.7,0.3,1.1,0.8,1.1,1.7v18.5c0,0.7,0.2,1.3,0.6,1.7c0.4,0.4,1,0.6,1.7,0.6H18.9z"/>
<path fill="#0A9AD7" d="M172,117.4c0.5,0,1-0.2,1.3-0.5c0.3-0.3,0.5-0.7,0.5-1.3v-3.5c0-0.5-0.2-1-0.5-1.3c-0.3-0.3-0.7-0.5-1.3-0.5
	h-2c-0.5,0-1,0.2-1.3,0.5c-0.3,0.3-0.5,0.7-0.5,1.3v3.5c0,0.5,0.2,1,0.5,1.3c0.3,0.3,0.7,0.5,1.3,0.5H172z M158.6,98.9
	c0,1.8-0.3,3.5-0.8,4.9c-0.6,1.4-1.4,2.6-2.4,3.6c-1,1-2.2,1.7-3.7,2.2c-1.4,0.5-3,0.8-4.7,0.8h-7.7c-0.5,0-0.8-0.3-0.8-0.8v-37
	c0-0.5,0.3-0.8,0.8-0.8h7.7c1.7,0,3.2,0.3,4.7,0.8c1.4,0.5,2.6,1.3,3.7,2.3c1,1,1.8,2.2,2.4,3.7c0.6,1.4,0.8,3.1,0.8,4.9V98.9z
	 M147.1,117.4c2.8,0,5.4-0.5,7.7-1.4c2.3-1,4.3-2.2,6-3.9c1.6-1.6,2.9-3.6,3.8-5.9c0.9-2.3,1.3-4.7,1.3-7.3V83.5
	c0-2.6-0.5-5.1-1.3-7.3c-0.9-2.3-2.2-4.2-3.8-5.9c-1.6-1.6-3.6-2.9-6-3.9c-2.3-1-4.9-1.4-7.7-1.4h-13.5c-0.7,0-1.3,0.2-1.7,0.6
	c-0.4,0.4-0.6,1-0.6,1.7v47.7c0,0.7,0.2,1.3,0.6,1.7c0.4,0.4,1,0.6,1.7,0.6H147.1z M112.3,105c0.1,0.4,0,0.7-0.2,1
	c-0.3,0.3-0.7,0.2-1.2-0.1l-14.5-8.5c-0.4-0.2-0.6-0.5-0.8-0.8c-0.2-0.3-0.1-0.8,0.1-1.5l6.1-20.3c0.2-0.6,0.4-0.8,0.8-0.8
	c0.4,0,0.6,0.3,0.8,0.8L112.3,105z M122,115.9c0.8-0.7,1-1.6,0.6-2.8l-14.7-46c-0.3-0.8-0.6-1.4-1-1.7c-0.4-0.3-1-0.4-1.7-0.4h-5.4
	c-0.7,0-1.3,0.1-1.7,0.4c-0.4,0.3-0.8,0.8-1,1.7l-15.4,48.1c-0.4,1.4,0.1,2.2,1.6,2.2H87c1.4,0,2.3-0.6,2.6-1.8l3.2-10.5
	c0.1-0.3,0.3-0.6,0.6-0.8c0.3-0.2,0.6-0.2,1,0l22.4,13.1c0.6,0.3,1.2,0.5,1.8,0.5c0.6,0.1,1.2-0.1,1.7-0.5L122,115.9z M67.1,100.4
	c0,3.1-0.9,5.6-2.8,7.7c-1.8,2.1-4.5,3.1-8,3.1c-3.5,0-6.2-1-8-3.1c-1.8-2.1-2.8-4.6-2.8-7.7V81.9c0-3.1,0.9-5.6,2.8-7.7
	c1.8-2.1,4.5-3.1,8-3.1c3.5,0,6.2,1,8,3.1c1.8,2.1,2.8,4.6,2.8,7.7V100.4z M74.5,81.9c0-2.6-0.4-5-1.3-7.2c-0.9-2.2-2.2-4-3.8-5.6
	c-1.6-1.5-3.5-2.7-5.7-3.6c-2.2-0.9-4.6-1.3-7.2-1.3c-2.6,0-5,0.4-7.2,1.3c-2.2,0.9-4.1,2.1-5.7,3.6c-1.6,1.5-2.9,3.4-3.8,5.6
	c-0.9,2.2-1.3,4.6-1.3,7.2v18.5c0,2.6,0.4,5,1.3,7.2c0.9,2.2,2.2,4,3.8,5.6c1.6,1.5,3.5,2.7,5.7,3.6c2.2,0.9,4.6,1.3,7.2,1.3
	c2.6,0,5-0.4,7.2-1.3c2.2-0.9,4.1-2.1,5.7-3.6c1.6-1.5,2.9-3.4,3.8-5.6c0.9-2.2,1.3-4.6,1.3-7.2V81.9z M31.4,117.4
	c0.7,0,1.3-0.2,1.7-0.6c0.4-0.4,0.6-1,0.6-1.7v-2.3c0-0.7-0.2-1.3-0.6-1.7c-0.4-0.4-1-0.6-1.7-0.6h-21c-0.5,0-0.8-0.3-0.8-0.8V67.3
	c0-0.7-0.2-1.3-0.6-1.7C8.6,65.2,8,65,7.3,65H4.6c-0.7,0-1.3,0.2-1.7,0.6c-0.4,0.4-0.6,1-0.6,1.7v47.7c0,0.7,0.2,1.3,0.6,1.7
	c0.4,0.4,1,0.6,1.7,0.6H31.4z"/>
<path fill="#0A9AD7" d="M104.6,52.4c0.7,0,1.3-0.2,1.7-0.6c0.4-0.4,0.6-1,0.6-1.7v-2.3c0-0.7-0.2-1.3-0.6-1.7
	c-0.4-0.4-1-0.6-1.7-0.6H83.5c-0.5,0-0.8-0.3-0.8-0.8V30c0-0.5,0.3-0.8,0.8-0.8h18.1c0.7,0,1.3-0.2,1.7-0.6c0.4-0.4,0.6-1,0.6-1.7
	v-2.3c0-0.7-0.2-1.3-0.6-1.7c-0.4-0.4-1-0.6-1.7-0.6H83.5c-0.5,0-0.8-0.3-0.8-0.8V7.7c0-0.5,0.3-0.8,0.8-0.8h19.6
	c0.7,0,1.3-0.2,1.7-0.6c0.4-0.4,0.6-1,0.6-1.7V2.3c0-0.7-0.2-1.3-0.6-1.7c-0.4-0.4-1-0.6-1.7-0.6H77.7C77,0,76.4,0.2,76,0.6
	c-0.4,0.4-0.6,1-0.6,1.7v47.7c0,0.7,0.2,1.3,0.6,1.7c0.4,0.4,1,0.6,1.7,0.6H104.6z M56.6,35.4c0,3.1-0.8,5.6-2.4,7.7
	c-1.6,2.1-4.1,3.1-7.6,3.1c-1.7,0-3.2-0.3-4.5-0.8c-1.3-0.5-2.3-1.3-3.1-2.3c-0.8-1-1.4-2.1-1.8-3.4c-0.4-1.3-0.6-2.7-0.6-4.3V2.3
	c0-0.7-0.2-1.3-0.6-1.7C35.5,0.2,35,0,34.3,0h-2.7c-0.7,0-1.3,0.2-1.7,0.6c-0.4,0.4-0.6,1-0.6,1.7v33.1c0,3.1-0.8,5.6-2.4,7.7
	c-1.6,2.1-4.1,3.1-7.6,3.1c-1.7,0-3.2-0.3-4.5-0.8c-1.3-0.5-2.3-1.3-3.1-2.3c-0.8-1-1.4-2.1-1.8-3.4c-0.4-1.3-0.6-2.7-0.6-4.3V2.3
	C9.2,1.6,9,1,8.6,0.6C8.2,0.2,7.6,0,6.9,0H4.2C3.5,0,3,0.2,2.5,0.6C2.1,1,1.9,1.6,1.9,2.3v33.1c0,2.6,0.4,5,1.2,7.2
	c0.8,2.2,2,4,3.5,5.6c1.5,1.5,3.3,2.7,5.5,3.6c2.1,0.9,4.5,1.3,7.1,1.3c2.9,0,5.3-0.5,7.3-1.5c2-1,3.7-2.4,5.2-4.2
	c0.7-0.8,1.4-0.8,2.2,0c0.7,0.8,1.5,1.5,2.3,2.2c0.8,0.7,1.7,1.3,2.7,1.8c1,0.5,2.1,0.9,3.3,1.2c1.2,0.3,2.6,0.4,4.2,0.4
	c2.6,0,5-0.4,7.1-1.3c2.1-0.9,4-2.1,5.5-3.6c1.5-1.5,2.7-3.4,3.5-5.6c0.8-2.2,1.2-4.6,1.2-7.2V2.3c0-0.7-0.2-1.3-0.6-1.7
	c-0.4-0.4-1-0.6-1.7-0.6h-2.7c-0.7,0-1.3,0.2-1.7,0.6c-0.4,0.4-0.6,1-0.6,1.7V35.4z"/>
</svg>
